<svg width="43" height="42" viewBox="0 0 43 42" fill="none" xmlns="http://www.w3.org/2000/svg">
<path d="M21.0892 20.1635H20.515C18.2099 20.1635 15.8966 20.1553 13.5916 20.1717C12.4103 20.1799 11.6392 21.2463 12.0002 22.3373C12.2381 23.0428 12.8615 23.4529 13.731 23.4529H22.4181C23.747 23.4529 24.3705 22.8295 24.3705 21.4924C24.3705 17.3252 24.3705 13.158 24.3705 8.99081C24.3705 8.84316 24.3705 8.6873 24.3623 8.53964C24.327 8.12702 24.1362 7.74324 23.8285 7.46604C23.5208 7.18883 23.1193 7.03892 22.7052 7.04667C21.7701 7.05488 21.0974 7.77675 21.0892 8.79394C21.0838 12.4033 21.0838 16.01 21.0892 19.6139C21.0892 19.7779 21.0892 19.942 21.0892 20.1635Z" fill="white"/>
<path d="M0.909546 19.7694C1.01619 18.9901 1.09822 18.2026 1.22947 17.4233C1.86111 13.7237 3.39509 10.4342 5.79041 7.53855L6.17595 7.07097C6.02009 7.05456 5.90525 7.03816 5.79861 7.03816C4.9947 7.03816 4.18259 7.05456 3.37869 7.02995C2.57478 7.00534 1.8283 6.38191 1.74626 5.54519C1.70832 5.16037 1.80892 4.77463 2.02996 4.45735C2.251 4.14007 2.57799 3.91206 2.95212 3.81433C3.09661 3.77577 3.24555 3.75646 3.39509 3.75691C4.70759 3.75691 6.02009 3.7323 7.33259 3.76511C9.86736 3.82253 11.992 5.92253 12.0576 8.4573C12.0986 9.778 12.0822 11.1069 12.0658 12.4358C12.0669 12.652 12.0252 12.8662 11.9433 13.0662C11.8613 13.2662 11.7406 13.448 11.5882 13.6012C11.4357 13.7544 11.2545 13.876 11.0549 13.959C10.8553 14.0419 10.6413 14.0846 10.4252 14.0846C9.52283 14.0846 8.80916 13.371 8.79275 12.4276C8.77634 11.353 8.79275 10.2784 8.79275 9.07253C8.399 9.55652 8.05447 9.93386 7.75095 10.344C6.10212 12.5753 4.9865 15.0444 4.50251 17.7843C3.63298 22.7307 4.65017 27.2671 7.6115 31.3194C10.417 35.1749 14.2068 37.5456 18.899 38.4233C19.7439 38.5792 20.6052 38.6202 21.4666 38.6858C22.3279 38.7514 23.0334 39.2928 23.14 40.1296C23.2467 40.9663 22.7545 41.6307 21.8603 41.926C21.8248 41.9436 21.7917 41.9656 21.7619 41.9917H21.1056C20.2689 41.9014 19.424 41.8358 18.5873 41.7046C14.1002 40.9745 10.2365 38.9975 7.02908 35.7655C3.82166 32.5335 1.97595 28.9159 1.22947 24.5764C1.09822 23.7971 1.01619 23.0096 0.909546 22.2303V19.7694Z" fill="#E13CBF"/>
<path d="M42.9095 22.0664L42.7865 22.3617C42.5076 23.0918 41.7693 23.543 41.0392 23.4281C40.3091 23.3133 39.6119 22.6652 39.6283 21.8285C39.6611 20.0156 39.5381 18.2191 39.0459 16.4719C37.5529 11.1562 34.3209 7.28438 29.3416 4.89727C27.2662 3.90469 25.0431 3.39609 22.7381 3.28125C21.4994 3.21563 20.7529 2.05078 21.2451 0.959766C21.4748 0.442969 21.9177 0.196875 22.4017 0H23.3861C24.2228 0.123047 25.0595 0.205078 25.8881 0.369141C30.5146 1.28242 34.4056 3.4918 37.5611 6.99727C40.2298 9.97227 41.906 13.4367 42.5896 17.3906C42.7209 18.1535 42.8029 18.9246 42.9095 19.6957V22.0664Z" fill="#E13CBF"/>
<path d="M30.933 41.9998C30.7197 41.967 30.5064 41.9342 30.2931 41.885C29.4862 41.7096 28.7445 41.3118 28.1521 40.7365C26.4513 39.085 24.7533 37.4252 23.058 35.7572C22.5986 35.3061 22.3853 34.7729 22.5494 34.1248C22.6125 33.8616 22.7403 33.6183 22.9214 33.4171C23.1024 33.2158 23.3309 33.063 23.586 32.9726C23.8411 32.8821 24.1148 32.8568 24.3822 32.899C24.6495 32.9412 24.9021 33.0496 25.117 33.2143C25.2439 33.3161 25.3645 33.4257 25.4779 33.5424L30.2931 38.2346C30.9658 38.8908 31.5072 38.8416 32.0486 38.0869L39.8252 27.226C40.5142 26.2662 41.6791 26.1022 42.4173 26.8815C42.6306 27.1112 42.7455 27.4393 42.9095 27.7182V28.3744C42.7619 28.6369 42.647 28.9076 42.4748 29.1537L34.5834 40.1869C34.0348 40.9642 33.24 41.5337 32.3275 41.803C32.0568 41.885 31.7779 41.9342 31.499 41.9998H30.933Z" fill="#E13CBF"/>
<path d="M21.0892 20.1635C21.0892 19.942 21.0892 19.7779 21.0892 19.6139C21.0892 16.0045 21.0892 12.3978 21.0892 8.79394C21.0892 7.77675 21.7619 7.05488 22.7052 7.04667C23.1193 7.03892 23.5208 7.18883 23.8285 7.46604C24.1362 7.74324 24.327 8.12702 24.3623 8.53964C24.3787 8.6873 24.3705 8.84316 24.3705 8.99081C24.3705 13.158 24.3705 17.3252 24.3705 21.4924C24.3705 22.8213 23.747 23.4529 22.4181 23.4529H13.7228C12.8533 23.4529 12.2298 23.0428 11.992 22.3373C11.631 21.2545 12.3939 20.1799 13.5834 20.1717C15.8884 20.1553 18.2017 20.1635 20.5068 20.1635H21.0892Z" fill="#E13CBF"/>
</svg>
