<svg width="53" height="23" viewBox="0 0 53 23" fill="none" xmlns="http://www.w3.org/2000/svg">
<g clip-path="url(#clip0_30_121)">
<path d="M0 4.27079C0.40026 3.37682 1.07656 3.04158 2.02891 3.09746C2.98125 3.15333 3.91979 3.12539 4.87213 3.09746C5.07205 3.09345 5.26547 3.02494 5.42422 2.9019C10.2964 -1.24667 16.7143 -0.799688 20.9654 3.97745L21.1172 4.13111C22.6906 2.9438 24.4711 2.27333 26.4724 2.27333C28.4201 2.26046 30.3156 2.90976 31.8552 4.11714C32.3797 3.61428 32.8628 3.08349 33.401 2.6365C37.5417 -0.841592 43.4352 -0.757782 47.493 2.81809C47.7007 2.98847 47.9573 3.08645 48.2245 3.09746C49.2596 3.12539 50.2948 3.11142 51.3299 3.11142C52.3651 3.11142 53 3.75396 53.0138 4.64793C53.0276 5.5419 52.3237 6.24031 51.3299 6.25428H50.2258C50.5156 7.37174 50.8883 8.4473 51.0539 9.55079C51.882 15.0822 48.3211 20.4041 42.9383 21.7451C41.4348 22.1183 39.8699 22.1625 38.3482 21.8745C36.8265 21.5866 35.383 20.9732 34.1144 20.0754C32.8457 19.1775 31.7811 18.016 30.9916 16.6683C30.2021 15.3206 29.706 13.8179 29.5365 12.2606C29.338 10.5869 29.5465 8.88948 30.1437 7.31587C30.2818 6.96666 30.199 6.78508 29.9229 6.57555C28.9406 5.81992 27.7407 5.4108 26.5069 5.4108C25.273 5.4108 24.0732 5.81992 23.0909 6.57555C22.8148 6.79904 22.7596 6.96666 22.8839 7.31587C23.4359 8.84638 23.6444 10.4821 23.4943 12.1042C23.3441 13.7264 22.8391 15.2945 22.0159 16.6946C21.1927 18.0948 20.0718 19.292 18.7347 20.1993C17.3976 21.1067 15.8776 21.7015 14.2852 21.9406C8.43307 22.8625 2.76042 18.6022 1.9599 12.6657C1.66286 10.6168 1.94519 8.52468 2.77422 6.63142C2.81563 6.51968 2.85703 6.40793 2.91224 6.24031C1.75287 6.28222 0.579688 6.4219 0.0138029 5.09492L0 4.27079ZM20.4271 11.0873C20.4243 9.53923 19.9686 8.02668 19.1173 6.74047C18.2661 5.45426 17.0575 4.45205 15.644 3.86027C14.2305 3.2685 12.6755 3.11368 11.1752 3.41536C9.67489 3.71704 8.29647 4.46169 7.21389 5.55537C6.1313 6.64904 5.39306 8.04273 5.0923 9.56058C4.79154 11.0784 4.94175 12.6524 5.52397 14.084C6.10619 15.5155 7.09434 16.7404 8.36373 17.6042C9.63312 18.468 11.1269 18.9319 12.6565 18.9375C13.6768 18.9411 14.6878 18.7407 15.6313 18.3477C16.5748 17.9546 17.4323 17.3768 18.1544 16.6473C18.8765 15.9178 19.449 15.051 19.839 14.0968C20.2291 13.1427 20.4289 12.1199 20.4271 11.0873ZM32.5867 11.0594C32.584 12.608 33.0348 14.1228 33.8821 15.4123C34.7294 16.7019 35.9353 17.7084 37.3475 18.3049C38.7597 18.9014 40.3149 19.061 41.8166 18.7636C43.3184 18.4662 44.6994 17.7251 45.7853 16.6339C46.8711 15.5428 47.6132 14.1504 47.9178 12.6328C48.2223 11.1151 48.0757 9.54011 47.4964 8.10671C46.9171 6.67331 45.9311 5.44577 44.6629 4.57908C43.3948 3.71239 41.9013 3.24542 40.3711 3.23714C39.3513 3.23162 38.3404 3.42968 37.3964 3.81997C36.4523 4.21026 35.5935 4.78513 34.8692 5.51167C34.1449 6.23821 33.5693 7.10218 33.1752 8.05412C32.7812 9.00605 32.5765 10.0273 32.5729 11.0594H32.5867Z" fill="#E13CBF"/>
</g>
<defs>
<clipPath id="clip0_30_121">
<rect width="53" height="22" fill="white" transform="translate(0 0.0803223)"/>
</clipPath>
</defs>
</svg>
