<svg width="25" height="24" viewBox="0 0 25 24" fill="none" xmlns="http://www.w3.org/2000/svg">
<path d="M0.998291 12.7059V11.3C1.01001 11.218 1.02759 11.136 1.03931 11.054C1.11548 10.5385 1.15649 10.0113 1.26782 9.5075C1.89477 6.62539 3.37134 4.26464 5.72095 2.48968C8.63892 0.281238 11.9319 -0.456862 15.5178 0.292955C18.3889 0.890465 20.7209 2.39596 22.5081 4.7157C24.4358 7.2229 25.2385 10.0757 24.9338 13.2097C24.6877 15.7521 23.7034 18.0015 22.0042 19.9171C20.1467 22.0201 17.8323 23.3264 15.0608 23.8185C14.6096 23.9005 14.1526 23.9415 13.6956 24.0059H12.2893C12.2298 23.9879 12.1691 23.9742 12.1077 23.9649C10.2327 23.8302 8.47485 23.2971 6.87524 22.313C3.76392 20.4091 1.85376 17.6618 1.17993 14.0708C1.10376 13.6139 1.05688 13.157 0.998291 12.7059ZM23.135 12.003C23.135 6.41451 18.5999 1.8746 13.0042 1.86874C7.40845 1.86288 2.87915 6.39108 2.86157 11.9913C2.84399 17.5915 7.40845 22.1431 13.0042 22.1372C18.5999 22.1314 23.135 17.5915 23.135 12.003Z" fill="#E13CBF"/>
<path d="M12.9924 12.8467H8.39868C7.72486 12.8467 7.27368 12.2668 7.46704 11.6517C7.5128 11.4851 7.60668 11.3356 7.73696 11.222C7.86723 11.1085 8.02811 11.0358 8.19947 11.0132C8.29237 10.9973 8.38647 10.9895 8.48071 10.9898H17.5276C18.0256 10.9898 18.3713 11.2065 18.512 11.599C18.5638 11.7384 18.5812 11.8883 18.5627 12.0359C18.5443 12.1835 18.4905 12.3245 18.406 12.4469C18.3215 12.5693 18.2087 12.6696 18.0772 12.7392C17.9458 12.8088 17.7994 12.8457 17.6506 12.8467C17.0178 12.8584 16.385 12.8526 15.7522 12.8526L12.9924 12.8467Z" fill="#E13CBF"/>
</svg>
