<svg width="24" height="24" viewBox="0 0 24 24" fill="none" xmlns="http://www.w3.org/2000/svg">
<g clip-path="url(#clip0_103_89)">
<path d="M0 12.7058C0 12.2372 0 11.7685 0 11.2999C0.0117188 11.2179 0.0292967 11.1359 0.0410154 11.0539C0.117187 10.5384 0.158203 10.0111 0.269531 9.50736C0.896484 6.62526 2.37891 4.2645 4.72266 2.48955C7.64062 0.275242 10.9336 -0.457001 14.5195 0.292816C17.3906 0.890327 19.7227 2.39582 21.5098 4.71556C23.4375 7.22276 24.2402 10.0697 23.9355 13.2096C23.6895 15.7519 22.7051 18.0014 21.0059 19.9169C19.1484 22.0199 16.834 23.3263 14.0625 23.8183C13.6113 23.9003 13.1543 23.9413 12.6973 24.0058H11.291C11.2315 23.9877 11.1708 23.974 11.1094 23.9648C9.23437 23.83 7.47656 23.297 5.87109 22.3128C2.75977 20.409 0.849609 17.6616 0.175781 14.0707C0.105469 13.6138 0.0585938 13.1569 0 12.7058ZM12.0117 22.1371C17.6074 22.1254 22.1426 17.5855 22.1367 11.997C22.1309 6.40851 17.5957 1.8686 12 1.8686C6.4043 1.8686 1.83984 6.43194 1.86328 12.0204C1.88672 17.6089 6.42773 22.1488 12.0117 22.1371Z" fill="#E13CBF"/>
<path d="M11.0684 10.9835C11.0684 10.7023 11.0684 10.4504 11.0684 10.2043C11.0684 9.23778 11.0625 8.26536 11.0742 7.2988C11.0801 6.80088 11.3906 6.44354 11.8594 6.36153C12.0648 6.32575 12.2764 6.36222 12.458 6.46474C12.6396 6.56727 12.78 6.72952 12.8555 6.9239C12.9082 7.07846 12.934 7.24095 12.9316 7.40425C12.9375 8.50554 12.9375 9.60684 12.9375 10.7081C12.9375 10.7901 12.9375 10.878 12.9375 10.9893H16.5117C16.8867 10.9893 17.209 11.0889 17.4258 11.4169C17.5202 11.5521 17.5747 11.7112 17.583 11.8759C17.5913 12.0406 17.5531 12.2043 17.4727 12.3484C17.2969 12.6823 17.0098 12.8521 16.6348 12.8521H12.9316C12.9316 12.9576 12.9316 13.0396 12.9316 13.1216C12.9316 14.2463 12.9375 15.3711 12.9316 16.4958C12.9258 17.2104 12.3164 17.6674 11.6836 17.4389C11.2969 17.2983 11.0684 16.9527 11.0625 16.4841C11.0566 15.3652 11.0625 14.2522 11.0625 13.1333C11.0625 13.0513 11.0625 12.9634 11.0625 12.8463H7.35938C7.19298 12.8471 7.02942 12.8031 6.88592 12.7189C6.74242 12.6347 6.62428 12.5134 6.54392 12.3677C6.46357 12.222 6.42398 12.0574 6.42931 11.8911C6.43464 11.7248 6.4847 11.563 6.57422 11.4228C6.7793 11.0948 7.10157 10.9835 7.47657 10.9835H11.0684Z" fill="#E13CBF"/>
</g>
<defs>
<clipPath id="clip0_103_89">
<rect width="24" height="24" fill="white"/>
</clipPath>
</defs>
</svg>
