<svg width="59" height="43" viewBox="0 0 59 43" fill="none" xmlns="http://www.w3.org/2000/svg">
<g clip-path="url(#clip0_124_34)">
<path d="M8.72844 38.0871C7.46373 38.0871 6.12777 38.2486 4.84525 38.0512C3.49994 37.845 2.27278 37.1593 1.38691 36.1189C0.501041 35.0785 0.0152928 33.7525 0.0179883 32.3819C-0.00576212 23.6984 -0.00576212 15.0209 0.0179883 6.3494C0.0203239 5.58368 0.172379 4.82592 0.465471 4.11939C0.758563 3.41286 1.18695 2.77139 1.72618 2.23162C2.26541 1.69184 2.90491 1.26432 3.60818 0.973469C4.31145 0.68262 5.06471 0.534136 5.82496 0.536496C15.8476 0.512574 25.8643 0.512574 35.8751 0.536496C37.4107 0.541197 38.8823 1.15646 39.9698 2.24843C41.0573 3.34039 41.6727 4.82071 41.6821 6.36734C41.6999 7.26439 41.6821 8.16144 41.6821 9.1482H47.3644C50.1966 9.16614 52.4588 10.9244 53.1535 13.7052C53.492 15.0149 53.8126 16.3067 54.0976 17.6164C54.1294 17.834 54.219 18.039 54.357 18.2095C54.4949 18.3801 54.6761 18.5099 54.8814 18.5852C56.6983 19.3567 58.0164 20.6125 58.5508 22.586C58.6965 23.1243 58.7743 23.6788 58.7824 24.2366C58.8002 26.874 58.8002 29.5292 58.7824 32.1666C58.7645 34.8039 57.2683 36.9568 54.7923 37.8898C54.5283 38.004 54.3179 38.216 54.2045 38.4818C53.3138 40.9218 51.2119 42.5006 48.7716 42.5365C46.3312 42.5724 44.069 41.0833 43.1427 38.5895L42.9824 38.2127H20.7164C20.3246 38.2127 20.0574 38.2127 19.8792 38.7151C19.4691 39.8365 18.7257 40.8034 17.7504 41.484C16.775 42.1646 15.6151 42.5258 14.4285 42.5186C13.2401 42.5129 12.0817 42.1423 11.1078 41.4563C10.1339 40.7703 9.39085 39.8015 8.97782 38.6792L8.72844 38.0871ZM38.4758 34.9474V34.176C38.4758 30.3844 38.4758 26.5929 38.4758 22.8013C38.4758 17.3951 38.4758 11.9948 38.4758 6.60057C38.4758 4.93205 37.3714 3.76588 35.7504 3.76588H5.89621C5.54337 3.75618 5.19224 3.81842 4.86389 3.94886C4.53555 4.07931 4.23678 4.27527 3.98554 4.52497C3.7343 4.77467 3.53577 5.07295 3.40189 5.40189C3.26801 5.73083 3.20154 6.08363 3.20648 6.4391C3.1946 15.0508 3.1946 23.6625 3.20648 32.2742C3.20648 33.8171 4.34649 34.9474 5.86058 34.9833C6.64434 35.0013 7.4281 34.9474 8.19405 35.0013C8.65719 35.0192 8.8175 34.8577 8.99563 34.4271C9.86846 32.2742 11.4894 31.0004 13.7695 30.7313C16.0495 30.4622 17.7595 31.2875 19.0777 33.0457C19.5052 33.6019 19.7724 34.2836 20.1464 34.9474H38.4758ZM54.1688 34.6065C55.0951 34.0504 55.5761 33.2789 55.5761 32.2204C55.5879 29.5532 55.5879 26.8859 55.5761 24.2187C55.5885 23.7119 55.4557 23.2122 55.1935 22.7794C54.9313 22.3467 54.5508 21.9993 54.0976 21.7787C53.5454 21.4916 52.9932 21.2046 52.441 20.9175C52.1446 20.7845 51.8844 20.5812 51.6828 20.3251C51.4812 20.0689 51.3441 19.7674 51.2832 19.4464C50.9091 17.8317 50.4994 16.2349 50.0897 14.6202C49.68 13.0055 48.7716 12.3596 47.2219 12.3417H42.2699L41.7177 12.3776V34.9115C42.8755 35.0371 42.8755 35.0371 43.3565 34.0324C43.9458 32.7721 44.9612 31.7641 46.221 31.1888C47.4808 30.6136 48.9027 30.5086 50.2322 30.8928C52.1382 31.4489 53.3851 32.7227 54.1688 34.6065ZM17.1004 36.5801C17.104 36.0471 16.9503 35.525 16.6588 35.0801C16.3674 34.6352 15.9513 34.2875 15.4634 34.081C14.9755 33.8746 14.4377 33.8187 13.9183 33.9205C13.3988 34.0223 12.921 34.2772 12.5456 34.6528C12.1701 35.0285 11.9139 35.508 11.8093 36.0305C11.7048 36.553 11.7566 37.095 11.9583 37.5878C12.16 38.0806 12.5025 38.502 12.9423 38.7985C13.382 39.095 13.8993 39.2533 14.4285 39.2533C15.1341 39.2533 15.811 38.9722 16.3116 38.4714C16.8122 37.9706 17.0957 37.2907 17.1004 36.5801ZM51.301 36.5621C51.301 36.0291 51.1438 35.5081 50.8494 35.0652C50.555 34.6222 50.1367 34.2773 49.6474 34.0742C49.1581 33.871 48.62 33.8188 48.1012 33.9241C47.5824 34.0294 47.1064 34.2875 46.7334 34.6656C46.3605 35.0438 46.1074 35.525 46.0063 36.0482C45.9053 36.5714 45.9607 37.1131 46.1657 37.6045C46.3707 38.0959 46.7159 38.5149 47.1576 38.8085C47.5994 39.102 48.1177 39.2568 48.6469 39.2533C49.3493 39.2486 50.0217 38.9654 50.5185 38.4651C51.0152 37.9648 51.2963 37.2876 51.301 36.5801V36.5621Z" fill="#E13CBF"/>
<path d="M20.9124 17.7422H31.3863C32.6688 17.7422 33.4526 18.8545 32.9894 19.9669C32.8836 20.2392 32.7039 20.4761 32.4708 20.6506C32.2378 20.8251 31.9607 20.9301 31.6713 20.9536C31.4522 20.9728 31.2321 20.9788 31.0122 20.9716H10.1178C9.72379 20.9319 9.35829 20.7467 9.09176 20.4517C8.82523 20.1567 8.67653 19.7728 8.67431 19.3739C8.6721 18.9751 8.81653 18.5895 9.07978 18.2915C9.34302 17.9936 9.70645 17.8043 10.1 17.7601H20.9124V17.7422Z" fill="#E13CBF"/>
<path d="M25.1875 9.13037H31.2616C32.4016 9.13037 33.1498 9.77625 33.132 10.763C33.1141 11.7498 32.4016 12.3598 31.2972 12.3598H18.953C17.8486 12.3598 17.1183 11.7139 17.1183 10.763C17.1183 9.81213 17.8486 9.13037 18.9886 9.13037H25.1875Z" fill="#E13CBF"/>
</g>
<defs>
<clipPath id="clip0_124_34">
<rect width="58.8" height="42" fill="white" transform="translate(0.000175476 0.500488)"/>
</clipPath>
</defs>
</svg>
