<svg width="42" height="43" viewBox="0 0 42 43" fill="none" xmlns="http://www.w3.org/2000/svg">
<g clip-path="url(#clip0_33_2)">
<path d="M0 22.2977V19.8368C0.0246094 19.7055 0.0492182 19.5743 0.0738276 19.443C0.262499 18.3028 0.36914 17.1379 0.648046 16.0223C1.76367 11.5762 4.15078 7.91762 7.64531 4.9727C10.5 2.56918 13.773 1.01879 17.4645 0.387152C18.2273 0.255902 18.9984 0.173871 19.7695 0.0672302H22.2305L22.5832 0.141058C23.7398 0.32973 24.9129 0.436371 26.0449 0.715277C30.5812 1.85551 34.2973 4.30825 37.2586 7.90121C39.5883 10.7313 41.0812 13.9469 41.6883 17.5727C41.8113 18.3274 41.9016 19.0821 42 19.8368V22.2977C41.9754 22.4289 41.9508 22.5602 41.9262 22.6915C41.7375 23.8317 41.6309 24.9965 41.352 26.1122C40.2363 30.5582 37.8492 34.2168 34.3547 37.1618C31.5 39.5653 28.227 41.1157 24.5355 41.7473C23.7727 41.8786 23.0016 41.9606 22.2305 42.0672H19.7695L19.4168 41.9934C18.2602 41.8047 17.0871 41.6981 15.9551 41.4192C11.4187 40.279 7.71094 37.8262 4.74961 34.225C2.41992 31.395 0.926953 28.1793 0.319921 24.5536C0.188671 23.8071 0.106641 23.0524 0 22.2977ZM22.2305 18.1797C26.6355 16.2684 30.6223 18.0895 32.5992 20.5504C33.7148 21.945 34.3711 23.5282 34.5023 25.3082C34.6664 27.4493 34.084 29.3852 32.8617 31.0832L34.9289 33.1504C41.3602 25.9235 41.2207 14.5129 33.3621 7.37621C25.6512 0.378948 14.9625 1.5602 8.9332 7.15473L11.4598 9.68129C11.5369 9.56883 11.6219 9.46192 11.7141 9.36137C13.2891 7.83559 15.1676 7.22856 17.3168 7.67153C20.2289 8.27036 22.1977 10.7313 22.2223 13.7172C22.2387 15.1938 22.2305 16.6704 22.2305 18.1797ZM20.5078 32.7239L20.1797 33.0192C18.6211 34.3645 16.8246 34.8813 14.8066 34.4465C11.8781 33.8149 9.93398 31.3622 9.92578 28.3352C9.91484 23.5665 9.91758 18.7977 9.93398 14.0289C9.94635 13.443 10.0039 12.8588 10.1063 12.2817C10.1473 12.052 10.1062 11.9043 9.95039 11.7485C9.06445 10.8789 8.18672 9.99301 7.30898 9.11528C7.24336 9.04965 7.16953 9.00043 7.10391 8.94301C0.615235 16.252 0.803906 27.6215 8.60508 34.7336C16.234 41.6817 26.9062 40.6645 33.0586 34.9961L31.0324 32.9618C27.5051 35.2258 24.0105 35.1684 20.5078 32.7239ZM12.4031 22.3059C12.4031 24.4633 12.3375 26.5797 12.4277 28.6879C12.5016 30.3778 13.5762 31.559 15.1758 32.0102C16.4555 32.3711 18.0469 31.879 18.818 30.8536C17.9749 29.6241 17.4661 28.1965 17.3414 26.711C17.2102 25.1852 17.4891 23.725 18.1289 22.2977L12.4031 22.3059ZM22.6242 20.8211L31.0898 29.2786C32.6648 26.9161 32.3285 23.6676 30.2531 21.6168C28.1777 19.5661 24.9129 19.2461 22.6324 20.8211H22.6242ZM20.7785 22.6668C19.1379 24.9391 19.5398 28.3926 21.6645 30.4188C24.0023 32.65 27.3656 32.4942 29.2195 31.1079L20.7785 22.6668ZM13.2152 11.3875L19.7613 17.9418C19.7661 17.9065 19.7688 17.8709 19.7695 17.8352C19.7695 16.4571 19.7777 15.0789 19.7613 13.7008C19.7534 13.0156 19.5637 12.3447 19.2117 11.7567C17.9402 9.57465 14.6344 9.40239 13.2152 11.3875ZM17.8828 19.8204L12.4031 14.3407V19.8204H17.8828Z" fill="#E13CBF"/>
</g>
<defs>
<clipPath id="clip0_33_2">
<rect width="42" height="42" fill="white" transform="translate(0 0.0672302)"/>
</clipPath>
</defs>
</svg>
