<svg width="32" height="33" viewBox="0 0 32 33" fill="none" xmlns="http://www.w3.org/2000/svg">
<g clip-path="url(#clip0_30_127)">
<path d="M32.0211 16.0672C32.0211 19.2714 32.0211 22.4546 32.0211 25.6588C32 29.4954 29.4493 32.0672 25.6127 32.0672H6.42953C2.5929 32.0672 0.0210993 29.4954 0.0210993 25.6588C0.00704569 19.2644 0.00704569 12.87 0.0210993 6.47566C0.0210993 2.63904 2.5929 0.0672302 6.42953 0.0672302H25.6127C29.4493 0.0672302 32.0211 2.63904 32.0211 6.47566C32.0211 9.67988 32.0211 12.863 32.0211 16.0672ZM7.27274 4.0725L28.0158 24.8367C28.0158 24.6469 28.0158 24.394 28.0158 24.1199C28.0158 18.2877 28.0158 12.4555 28.0158 6.62323C28.0158 4.81031 27.278 4.0725 25.4651 4.05142H7.27274V4.0725ZM24.6851 28.062L4.02637 7.4032V8.14101C4.02637 13.903 4.02637 19.6649 4.02637 25.4269C4.02637 27.3874 4.72202 28.062 6.70357 28.062H24.6851Z" fill="#E13CBF"/>
</g>
<defs>
<clipPath id="clip0_30_127">
<rect width="32" height="32" fill="white" transform="translate(0 0.0672302)"/>
</clipPath>
</defs>
</svg>
