<svg width="42" height="50" viewBox="0 0 42 50" fill="none" xmlns="http://www.w3.org/2000/svg">
<path d="M20.5215 49.7777C17.2108 48.7531 14.0811 47.2111 11.2473 45.2083C6.33453 41.718 3.15285 37.0027 1.48949 31.218C0.580438 28.0583 0.135584 24.8208 0.0485479 21.5444C-0.0384887 18.4722 0.0582177 15.3902 0.00986406 12.3083C-0.0384896 9.22635 2.10841 6.87357 5.29976 6.70829C7.63521 6.59813 9.93756 6.10894 12.1176 5.25968C14.1934 4.44787 16.1114 3.27643 17.7847 1.79857C18.597 1.08885 19.3417 0.301345 20.4248 -0.00976562H21.5853C22.6394 0.301345 23.3937 1.05968 24.1867 1.75968C27.0396 4.28746 30.376 5.80412 34.1185 6.39718C35.1533 6.56246 36.1978 6.64023 37.2325 6.76662C40.0467 7.11662 41.9712 9.23607 41.9809 12.0944C41.9905 15.7208 42.0582 19.3569 41.8648 22.9736C41.6134 27.7666 40.6076 32.3944 38.306 36.6722C36.2848 40.425 33.4609 43.4291 29.9214 45.7722C27.5424 47.3472 24.9894 48.5527 22.3009 49.5152C22.0301 49.6125 21.7497 49.6805 21.4789 49.768L20.5215 49.7777ZM2.92076 17.5486C2.83372 21.4861 3.04647 25.4138 3.97487 29.2638C5.04832 33.6972 7.0695 37.5763 10.3866 40.7361C13.3652 43.575 16.9046 45.4416 20.7439 46.7833C20.947 46.8513 21.2275 46.8125 21.4402 46.7347C23.6645 45.9472 25.792 44.9652 27.7939 43.7013C31.5365 41.3388 34.4377 38.2083 36.3235 34.1541C37.7161 31.1597 38.4317 27.9902 38.8185 24.7236C39.3214 20.4652 39.1957 16.1875 39.0796 11.9097C39.0506 10.743 38.2383 9.86801 37.0778 9.70274C35.9173 9.53746 34.9309 9.47912 33.8671 9.32357C30.5694 8.83746 27.4941 7.72912 24.7379 5.84301C23.5678 5.04579 22.5137 4.09301 21.4209 3.17912C21.1114 2.91662 20.889 2.88746 20.6085 3.17912C20.3281 3.47079 20.0573 3.67496 19.7865 3.92773C16.8369 6.5819 13.4038 8.27357 9.53554 9.06107C8.05592 9.36246 6.53761 9.45968 5.03865 9.68329C3.71376 9.87773 2.9401 10.7625 2.93043 12.0944C2.91109 13.9125 2.92076 15.7305 2.92076 17.5486Z" fill="#E13CBF"/>
<path d="M33.3449 24.9082C33.2772 31.7721 27.7455 37.3332 20.9954 37.2846C14.0518 37.236 8.63616 31.636 8.67484 24.8401C8.67481 23.2121 8.99504 21.6002 9.61709 20.097C10.2391 18.5939 11.1507 17.2293 12.2994 16.0817C13.4481 14.9342 14.8112 14.0263 16.3102 13.4104C17.8093 12.7945 19.4147 12.4827 21.034 12.4929C27.8906 12.5318 33.4126 18.1513 33.3449 24.9082ZM30.434 24.8693C30.405 19.629 26.1209 15.3415 20.976 15.3999C15.8312 15.4582 11.5857 19.6582 11.5761 24.879C11.5664 30.0999 15.8312 34.3776 21.0147 34.3679C26.1982 34.3582 30.463 30.0707 30.434 24.8693Z" fill="#E13CBF"/>
<path d="M18.8001 26.843L20.6666 24.9472C21.9334 23.6736 23.1906 22.4 24.4575 21.1361C25.1344 20.4652 26.0048 20.4458 26.6044 21.0583C27.204 21.6708 27.1556 22.5458 26.5173 23.1875C24.3253 25.4041 22.1301 27.6143 19.9316 29.818C19.2256 30.518 18.4229 30.5277 17.717 29.8375C17.011 29.1472 16.0923 28.2236 15.2896 27.3972C14.6514 26.7458 14.6223 25.8611 15.1929 25.268C15.7635 24.675 16.6629 24.6652 17.3398 25.3361C17.8234 25.793 18.2779 26.2986 18.8001 26.843Z" fill="#E13CBF"/>
</svg>
