<svg width="42" height="42" viewBox="0 0 42 42" fill="none" xmlns="http://www.w3.org/2000/svg">
<g clip-path="url(#clip0_129_74)">
<path d="M0 38.796C0 31.9873 0 25.1823 0 18.381C0.0109375 18.3591 0.0437493 18.3372 0.0437493 18.3154C0.579687 16.205 1.87031 15.2099 4.05781 15.2099C5.54531 15.2099 7.03281 15.199 8.53125 15.2209C8.68454 15.2284 8.8376 15.202 8.97943 15.1433C9.12127 15.0847 9.24836 14.9954 9.35156 14.8819C13.8797 10.3404 18.4115 5.80612 22.9469 1.27917C24.6641 -0.437569 26.8297 -0.426635 28.5578 1.29011L30.1547 2.88657L40.7969 13.526C41.5953 14.3242 42.0875 15.2646 41.9781 16.3799C41.8906 17.211 41.9781 18.0092 41.9781 18.8293C42.0219 25.3463 42.0109 31.8634 42 38.3804C42 39.9988 40.9062 41.3765 39.3531 41.8467L38.8062 41.9998H3.20469L2.93125 41.9123C1.575 41.5843 0.667187 40.7642 0.185937 39.463C0.109375 39.2443 0.065625 39.0256 0 38.796ZM21 39.5286H38.0625C39.0797 39.5286 39.5391 39.0693 39.5391 38.0524C39.5391 31.754 39.5391 25.4557 39.5391 19.1573C39.5391 18.1185 39.0797 17.6593 38.0406 17.6593H3.95938C2.92031 17.6593 2.46094 18.1185 2.46094 19.1573C2.46094 25.4411 2.46094 31.7285 2.46094 38.0196C2.46094 39.0803 2.90937 39.5286 3.98125 39.5286H21ZM32.0906 8.32109L31.8609 8.08053L26.7312 2.95217C26.075 2.29609 25.3969 2.30703 24.7297 2.96311L12.8516 14.8491L12.5234 15.2099H13.0922C16.5812 15.2099 20.0594 15.1552 23.5484 15.2427C24.7516 15.2755 25.5937 14.9366 26.4141 14.0508C28.2297 12.0935 30.1766 10.2456 32.0906 8.32109ZM35.5359 11.842L33.8844 10.18L28.8531 15.2099C29.5094 15.2099 30.2094 15.1443 30.8875 15.2209C31.8172 15.3302 32.4734 15.0131 33.0859 14.3133C33.8516 13.4385 34.7266 12.6512 35.5359 11.842ZM35.7219 15.2209H38.8719L37.3078 13.6463L35.7219 15.2209Z" fill="#E13CBF"/>
<path d="M0 38.7959C0.065625 39.0146 0.109375 39.2442 0.185937 39.4629C0.667187 40.7641 1.575 41.5842 2.93125 41.9123L3.20469 41.9998H0C0 40.9354 0 39.8675 0 38.7959Z" fill="white"/>
<path d="M9.08906 28.3318H7.07656C5.74219 28.3099 4.92188 27.4679 4.92188 26.1339C4.92188 25.1279 4.92188 24.111 4.92188 23.105C4.93281 21.8366 5.78594 20.9727 7.05469 20.9618C8.32344 20.9509 9.75625 20.9509 11.1125 20.9618C12.4688 20.9727 13.2125 21.8366 13.2234 23.0831C13.2307 24.1329 13.2307 25.1826 13.2234 26.2323C13.2125 27.4461 12.3922 28.288 11.1781 28.3318C10.4781 28.3536 9.78906 28.3318 9.08906 28.3318ZM10.7297 25.8496V23.444H7.40469V25.8496H10.7297Z" fill="#E13CBF"/>
<path d="M4.85626 35.7889V33.3833H10.5438V35.778L4.85626 35.7889Z" fill="#E13CBF"/>
<path d="M13.7266 33.3726H19.4141V35.7782H13.7266V33.3726Z" fill="#E13CBF"/>
<path d="M28.2734 35.8002H22.5859V33.3945H28.2734V35.8002Z" fill="#E13CBF"/>
<path d="M37.1437 33.3945V35.7892H31.4453V33.3945H37.1437Z" fill="#E13CBF"/>
</g>
<defs>
<clipPath id="clip0_129_74">
<rect width="42" height="42" fill="white"/>
</clipPath>
</defs>
</svg>
