<svg width="42" height="36" viewBox="0 0 42 36" fill="none" xmlns="http://www.w3.org/2000/svg">
<path d="M0 24.9595C0.194729 24.3173 0.307467 23.6337 0.584187 23.033C1.62958 20.8373 3.39239 19.5841 5.79063 19.4494C7.50861 19.3603 9.23044 19.381 10.9458 19.5116C11.6428 19.5633 11.981 19.4391 12.3807 18.8487C13.5183 17.1812 15.1581 16.2905 17.1772 16.2594C19.7701 16.218 22.3734 16.1973 24.9663 16.2801C27.0776 16.3423 28.7072 17.3987 29.8243 19.2008C30.0498 19.5633 30.2445 19.6669 30.634 19.5426C30.8567 19.476 31.0884 19.4446 31.3207 19.4494C33.0937 19.4598 34.877 19.3562 36.6398 19.5116C39.5198 19.7705 41.8668 22.3598 41.9488 25.2805C42.0103 27.6213 42 29.9724 41.959 32.3235C41.918 34.4156 40.3909 35.8967 38.3206 36.0003H3.97657C2.64422 36.0003 1.54758 35.5549 0.727671 34.4778C0.317715 33.9392 0.133236 33.3074 0 32.6652C0 30.0967 0 27.5281 0 24.9595ZM13.672 33.4835H28.287C28.2972 33.3902 28.3075 33.3281 28.3075 33.266C28.3075 29.6616 28.3382 26.0573 28.2972 22.4634C28.2767 20.2676 26.6881 18.7451 24.4846 18.7348C22.2811 18.7244 19.8419 18.7037 17.5256 18.7451C16.929 18.7474 16.3393 18.8743 15.7936 19.118C14.3485 19.8119 13.6925 21.0444 13.6925 22.6602C13.6994 26.1264 13.6994 29.5891 13.6925 33.0485L13.672 33.4835ZM11.2123 33.4835C11.2123 33.2867 11.2123 33.1313 11.2123 32.9656C11.2123 29.5961 11.2123 26.23 11.2123 22.8673C11.2123 21.9248 11.2123 21.9144 10.2489 21.9041C8.90971 21.8903 7.57052 21.8903 6.23133 21.9041C5.90286 21.9033 5.57565 21.9451 5.25769 22.0284C3.49488 22.5152 2.45974 23.903 2.44949 25.7777C2.43924 27.8595 2.44949 29.9413 2.44949 32.0231C2.44949 33.0485 2.90044 33.5042 3.92533 33.5042H10.7818L11.2123 33.4835ZM30.7775 33.4628L30.9004 33.5042C33.3807 33.5042 35.8712 33.5145 38.3514 33.4938C39.0278 33.4938 39.5095 32.9552 39.5095 32.251C39.5198 30.0449 39.53 27.8388 39.5095 25.6327C39.489 23.6441 38.0029 22.0594 36.1991 21.9662C34.59 21.8834 32.981 21.9352 31.3719 21.9352C31.1711 21.9515 30.9721 21.9862 30.7775 22.0387V33.4628Z" fill="#E13CBF"/>
<path d="M21 0.837402C22.9345 0.842886 24.7879 1.62333 26.1539 3.00764C27.5199 4.39195 28.287 6.26714 28.287 8.22211C28.2767 12.2718 24.9766 15.6068 20.9795 15.5965C16.9824 15.5861 13.6823 12.2511 13.6925 8.20139C13.698 6.24644 14.4702 4.37343 15.8401 2.993C17.2099 1.61258 19.0655 0.837395 21 0.837402ZM20.9897 3.32314C19.7068 3.31902 18.4747 3.83011 17.5646 4.74399C16.6545 5.65787 16.141 6.89967 16.1369 8.19621C16.1328 9.49275 16.6386 10.7378 17.5429 11.6575C18.4472 12.5772 19.676 13.0962 20.959 13.1004C23.6135 13.1211 25.817 10.915 25.817 8.22211C25.8183 7.58012 25.6945 6.94416 25.4527 6.35052C25.2108 5.75689 24.8556 5.21721 24.4074 4.7623C23.9591 4.30739 23.4266 3.94615 22.8402 3.69922C22.2538 3.45229 21.625 3.3245 20.9897 3.32314Z" fill="#E13CBF"/>
<path d="M2.73645 13.1934C2.7467 10.1484 5.23718 7.65232 8.22986 7.68339C11.2225 7.71446 13.6823 10.1898 13.672 13.2142C13.6618 16.2385 11.161 18.7553 8.16837 18.7242C5.17569 18.6931 2.7262 16.2074 2.73645 13.1934ZM8.25036 10.1795C6.62078 10.1277 5.26793 11.4431 5.19619 13.152C5.12445 14.861 6.46705 16.1763 8.13762 16.2385C9.8082 16.3006 11.1201 14.9542 11.1918 13.2556C11.2635 11.557 9.92093 10.2313 8.26061 10.1795H8.25036Z" fill="#E13CBF"/>
<path d="M33.7599 7.68362C35.2087 7.6795 36.5997 8.25716 37.6271 9.28952C38.6544 10.3219 39.2338 11.7244 39.2379 13.1885C39.242 14.6526 38.6704 16.0584 37.6488 17.0965C36.6272 18.1347 35.2394 18.7203 33.7906 18.7244C30.7979 18.7348 28.2972 16.2283 28.3075 13.1937C28.3155 11.7348 28.8926 10.3381 29.9134 9.30649C30.9341 8.27491 32.3163 7.69177 33.7599 7.68362ZM33.7189 10.1797C32.0483 10.2315 30.6955 11.6504 30.7672 13.2558C30.8389 14.8612 32.2328 16.3008 33.8316 16.2283C35.4305 16.1558 36.8448 14.7576 36.7731 13.1419C36.7013 11.5261 35.3485 10.1279 33.7189 10.1797Z" fill="#E13CBF"/>
</svg>
