<svg width="17" height="14" viewBox="0 0 17 14" fill="none" xmlns="http://www.w3.org/2000/svg">
<path d="M-0.000368504 8.82881C0.0535732 8.51367 0.0909191 8.19421 0.157308 7.87907C0.389675 6.81709 0.895899 5.91484 1.63034 5.15073C3.12965 3.5851 4.63172 2.02235 6.13656 0.462479C6.77557 -0.202337 7.70918 -0.146217 8.232 0.583355C8.51 0.967567 8.5515 1.41222 8.44361 1.8655C8.39457 2.07105 8.32504 2.27072 8.23615 2.46125C7.96229 3.05699 7.67183 3.6441 7.38967 4.23553L7.31084 4.41253C7.39797 4.41253 7.46021 4.41253 7.5266 4.41253C10.1711 4.41253 12.8157 4.41253 15.4602 4.41253C15.9706 4.41253 16.4063 4.57657 16.7175 5.01691C17.0287 5.45724 17.0909 5.96664 16.8793 6.47173C16.6677 6.97682 16.2859 7.30923 15.7507 7.33513C15.0038 7.37398 14.2569 7.35671 13.51 7.36535C13.4395 7.36535 13.3689 7.36535 13.2735 7.36535C13.4727 7.7841 13.5142 8.19421 13.3648 8.61728C13.2154 9.04034 12.9166 9.31663 12.5225 9.49362C12.983 10.2923 12.7258 11.2981 11.8503 11.6996C11.9125 11.9414 11.9955 12.1745 12.0245 12.4119C12.1117 13.1544 11.5432 13.884 10.8295 13.9747C10.7138 13.989 10.5974 13.9962 10.481 13.9962C8.56671 13.9962 6.65247 13.9962 4.73822 13.9962C4.11996 13.9962 3.51415 13.9099 2.93739 13.6638C1.53075 13.0595 0.601291 12.0018 0.173906 10.4822C0.090919 10.18 0.0577236 9.86488 -0.000368536 9.55406L-0.000368504 8.82881ZM11.2113 5.168C9.75482 5.168 8.30254 5.15936 6.8461 5.17232C6.42702 5.17663 6.27764 4.84854 6.44776 4.51182C6.8461 3.73476 7.21955 2.94475 7.58055 2.15474C7.68081 1.93142 7.74394 1.69203 7.76727 1.44675C7.77523 1.362 7.76671 1.27645 7.74222 1.19519C7.71774 1.11394 7.67778 1.03864 7.62474 0.973785C7.57169 0.908931 7.50665 0.855848 7.43347 0.817697C7.3603 0.779546 7.28049 0.757106 7.1988 0.751717C6.96229 0.734449 6.78386 0.838058 6.62619 1.0021L4.07017 3.66569C3.34403 4.42548 2.58469 5.15073 1.90835 5.95369C0.858553 7.19698 0.480959 8.66044 0.866851 10.2879C1.25274 11.9155 2.80046 13.2235 4.42702 13.2408C6.48511 13.2624 8.5432 13.2494 10.6013 13.2494C10.6669 13.2509 10.7325 13.2436 10.7963 13.2278C11.1449 13.1328 11.3523 12.8091 11.315 12.4292C11.2938 12.2567 11.2132 12.0981 11.088 11.983C10.9628 11.8678 10.8016 11.8039 10.6345 11.8032C10.0868 11.7989 9.53905 11.8032 8.99133 11.7989C8.91455 11.7996 8.83796 11.7909 8.76312 11.773C8.68756 11.7539 8.62031 11.7091 8.57206 11.6456C8.52382 11.5822 8.49735 11.5037 8.49688 11.4228C8.4964 11.3419 8.52194 11.2632 8.56943 11.1991C8.61692 11.1351 8.68364 11.0894 8.75897 11.0693C8.83931 11.0507 8.92148 11.042 9.00378 11.0434C9.77142 11.0434 10.5432 11.0434 11.3108 11.0391C11.6594 11.0391 11.9374 10.8146 12.0079 10.4952C12.1117 10.0289 11.8005 9.60155 11.3399 9.59723C10.5598 9.5886 9.77971 9.59723 8.99963 9.59292C8.92286 9.59327 8.8463 9.58458 8.77142 9.56701C8.69389 9.54961 8.62439 9.50522 8.57438 9.44118C8.52438 9.37713 8.49686 9.29726 8.49637 9.21475C8.49589 9.13224 8.52247 9.05202 8.57172 8.98735C8.62097 8.92267 8.68995 8.87741 8.76727 8.85903C8.84214 8.84134 8.91871 8.83265 8.99548 8.83312C9.99687 8.83025 10.9982 8.83025 11.9996 8.83312C12.2776 8.83312 12.4976 8.7252 12.6386 8.47913C12.9208 7.99131 12.5888 7.39125 12.037 7.38693C11.0245 7.3783 10.0121 7.38693 8.99963 7.38262C8.91732 7.38437 8.83511 7.37567 8.75482 7.35671C8.68119 7.33567 8.61624 7.29006 8.56995 7.22689C8.52366 7.16371 8.49859 7.08647 8.49859 7.00704C8.49859 6.9276 8.52366 6.85036 8.56995 6.78719C8.61624 6.72401 8.68119 6.6784 8.75482 6.65736C8.84047 6.63636 8.92824 6.62621 9.01623 6.62714C11.1518 6.62426 13.2873 6.62426 15.4229 6.62714C15.5017 6.62714 15.5764 6.62714 15.6552 6.62283C15.8106 6.60812 15.9563 6.53835 16.0681 6.42518C16.1799 6.31202 16.251 6.16233 16.2693 6.00118C16.3191 5.53494 16.0162 5.17663 15.5474 5.17663C14.1006 5.168 12.6552 5.16512 11.2113 5.168Z" fill="black"/>
<path d="M11.2116 5.16744C12.6556 5.16744 14.0996 5.16744 15.5436 5.16744C16.0125 5.16744 16.3154 5.52143 16.2656 5.99198C16.2472 6.15313 16.1762 6.30282 16.0644 6.41599C15.9526 6.52915 15.8068 6.59893 15.6515 6.61363C15.5726 6.61795 15.4979 6.61795 15.4191 6.61795C13.2835 6.61795 11.148 6.61795 9.01245 6.61795C8.92446 6.61702 8.83669 6.62717 8.75104 6.64817C8.67742 6.66921 8.61247 6.71482 8.56617 6.77799C8.51988 6.84116 8.49481 6.91841 8.49481 6.99784C8.49481 7.07728 8.51988 7.15452 8.56617 7.21769C8.61247 7.28087 8.67742 7.32648 8.75104 7.34752C8.83133 7.36648 8.91354 7.37517 8.99586 7.37342C10.0083 7.37342 11.0208 7.3691 12.0332 7.37774C12.5892 7.38205 12.917 7.98212 12.6349 8.46994C12.4938 8.71601 12.2739 8.82825 11.9959 8.82393C10.9945 8.82105 9.99309 8.82105 8.99171 8.82393C8.91493 8.82346 8.83836 8.83215 8.76349 8.84983C8.68617 8.86821 8.6172 8.91348 8.56795 8.97815C8.51869 9.04283 8.49212 9.12305 8.4926 9.20556C8.49308 9.28807 8.5206 9.36794 8.5706 9.43199C8.62061 9.49603 8.69011 9.54042 8.76764 9.55782C8.84253 9.57539 8.91909 9.58408 8.99586 9.58372C9.77594 9.58372 10.556 9.5794 11.3361 9.58804C11.7967 9.59235 12.1079 10.0197 12.0042 10.486C11.9336 10.8054 11.6556 11.0299 11.3071 11.0299C10.5394 11.0342 9.76764 11.0299 9 11.0342C8.9177 11.0328 8.83553 11.0415 8.75519 11.0601C8.67986 11.0802 8.61314 11.1259 8.56565 11.19C8.51816 11.254 8.49262 11.3328 8.4931 11.4137C8.49358 11.4946 8.52004 11.573 8.56829 11.6364C8.61653 11.6999 8.68378 11.7447 8.75934 11.7638C8.83418 11.7817 8.91077 11.7904 8.98756 11.7897C9.53527 11.794 10.083 11.7854 10.6307 11.794C10.7978 11.7947 10.959 11.8586 11.0842 11.9738C11.2094 12.0889 11.2901 12.2475 11.3112 12.42C11.3486 12.7956 11.1411 13.1193 10.7925 13.2186C10.7287 13.2344 10.6631 13.2417 10.5975 13.2402C8.53942 13.2402 6.48133 13.2532 4.42324 13.2316C2.79254 13.2143 1.25312 11.9278 0.863076 10.2788C0.473035 8.62967 0.850628 7.18779 1.90457 5.9445C2.58092 5.14154 3.34025 4.41197 4.06639 3.65649L6.62241 0.992908C6.78424 0.824546 6.96266 0.720938 7.19503 0.742523C7.2782 0.746713 7.35968 0.768579 7.43443 0.806774C7.50918 0.844969 7.57562 0.898683 7.62965 0.964608C7.68369 1.03053 7.72418 1.10727 7.74862 1.1901C7.77307 1.27292 7.78095 1.36008 7.77179 1.44619C7.74846 1.69147 7.68533 1.93086 7.58507 2.15418C7.21992 2.94851 6.85063 3.73851 6.45229 4.51126C6.27801 4.84798 6.43154 5.17607 6.85063 5.17175C8.30291 5.1588 9.75934 5.16744 11.2116 5.16744Z" fill="#FFB900"/>
</svg>
