<svg width="42" height="42" viewBox="0 0 42 42" fill="none" xmlns="http://www.w3.org/2000/svg">
<path d="M37.0863 13.3875C36.9387 10.6805 35.9051 8.53125 33.9199 6.88242C32.3613 5.58633 30.5484 4.95469 28.5223 4.92188C27.7922 4.91367 27.2508 5.44688 27.2426 6.13594C27.2344 6.825 27.743 7.3336 28.4566 7.38281H28.7848C29.9824 7.45664 31.0898 7.81758 32.0578 8.53945C33.682 9.74531 34.5434 11.3695 34.6172 13.3957C34.6418 13.9863 34.8551 14.4293 35.4129 14.6672C36.1758 14.9953 37.2012 14.4129 37.0863 13.3875ZM32.1562 13.4859C32.1374 12.5273 31.7488 11.613 31.0715 10.9342C30.3943 10.2555 29.4809 9.86473 28.5223 9.84375C28.2136 9.84459 27.9165 9.96141 27.69 10.171C27.4634 10.3807 27.3239 10.6678 27.2991 10.9754C27.2743 11.2831 27.3661 11.5888 27.5562 11.832C27.7463 12.0752 28.0208 12.2381 28.3254 12.2883C29.3426 12.4359 29.5641 12.6574 29.7117 13.6664C29.7618 13.9703 29.924 14.2444 30.1663 14.4345C30.4086 14.6247 30.7134 14.717 31.0205 14.6933C31.3276 14.6696 31.6146 14.5316 31.8249 14.3065C32.0352 14.0815 32.1534 13.7857 32.1562 13.4777V13.4859Z" fill="white"/>
<path d="M0 30.1054C0.229688 29.0965 0.39375 28.0711 0.713672 27.0949C1.22227 25.5117 2.17383 24.1746 3.34688 22.9933C7.69453 18.6457 12.0449 14.298 16.398 9.95037C18.0387 8.30975 20.2535 8.31795 21.8941 9.95858C25.2793 13.3383 28.6617 16.7207 32.0414 20.1058C33.6738 21.7465 33.682 23.9695 32.0496 25.6019C27.7074 29.9551 23.3598 34.3055 19.0066 38.6531C17.1117 40.548 14.8395 41.6637 12.1734 41.9426C12.0792 41.9588 11.9861 41.9807 11.8945 42.0082H10.2539L9.32695 41.8523C5.19258 41.0894 2.32148 38.7597 0.762891 34.8797C0.369141 33.8953 0.246094 32.8043 0 31.7543C0 31.2019 0 30.6523 0 30.1054ZM11.2137 39.539C13.4613 39.498 15.5203 38.6531 17.2184 36.9633C21.5988 32.5883 25.9766 28.2105 30.3516 23.8301C30.975 23.2066 30.9832 22.5094 30.3598 21.8859L20.1223 11.6566C19.4824 11.0168 18.7934 11.025 18.1535 11.673C13.784 16.0371 9.41719 20.4066 5.05313 24.7816C2.51836 27.3328 1.78008 31.0078 3.11719 34.1988C4.4543 37.3898 7.58789 39.5308 11.2137 39.539Z" fill="#E13CBF"/>
<path d="M42 13.8633C41.9617 13.9161 41.9261 13.9709 41.8934 14.0273C41.6063 14.5852 41.0648 14.8641 40.5152 14.741C39.9656 14.618 39.5637 14.1504 39.5473 13.5269C39.5145 12.1652 39.3094 10.8363 38.7926 9.56484C37.357 6.0621 34.8141 3.78163 31.1473 2.81367C30.3352 2.60038 29.482 2.54296 28.6371 2.46913C27.7922 2.39531 27.4066 2.09999 27.259 1.47656C27.1113 0.853119 27.4066 0.393744 28.0875 0.0492127C28.1121 0.0410096 28.1203 0.00819702 28.1367 -0.00820923H29.2852C29.9414 0.0902283 30.6059 0.155853 31.2621 0.295306C33.3535 0.727929 35.3094 1.65943 36.9633 3.01054C39.1453 4.79062 40.6793 7.03007 41.434 9.74531C41.7047 10.7051 41.8113 11.7141 42 12.6984V13.8633Z" fill="#E13CBF"/>
<path d="M37.0863 13.3875C37.2094 14.4129 36.1758 15.0035 35.4047 14.6754C34.8469 14.4375 34.6336 13.9945 34.609 13.4039C34.5352 11.3777 33.6738 9.75352 32.0496 8.54766C31.0816 7.82579 29.9742 7.46485 28.7766 7.39102H28.4484C27.7348 7.3418 27.2262 6.8168 27.2344 6.14415C27.2426 5.47149 27.7922 4.92188 28.5141 4.93008C30.5402 4.95469 32.3531 5.59454 33.9117 6.89063C35.9051 8.53126 36.9387 10.6805 37.0863 13.3875Z" fill="#E13CBF"/>
<path d="M32.1563 13.4859C32.1534 13.7939 32.0352 14.0897 31.8249 14.3147C31.6147 14.5398 31.3276 14.6778 31.0205 14.7015C30.7134 14.7252 30.4086 14.6329 30.1663 14.4427C29.924 14.2526 29.7618 13.9785 29.7117 13.6746C29.5641 12.6656 29.3426 12.4441 28.3254 12.2965C28.0209 12.2463 27.7463 12.0834 27.5562 11.8402C27.3661 11.5971 27.2744 11.2913 27.2991 10.9836C27.3239 10.676 27.4634 10.3889 27.69 10.1792C27.9165 9.96962 28.2136 9.8528 28.5223 9.85196C29.4795 9.87287 30.3917 10.2624 31.0687 10.9395C31.7458 11.6165 32.1354 12.5287 32.1563 13.4859Z" fill="#E13CBF"/>
<path d="M20.8195 17.4726C22.8539 17.5301 24.4945 19.2199 24.4453 21.2133C24.3961 23.2066 22.7063 24.8965 20.7211 24.8473C18.7359 24.798 17.0051 23.0754 17.0789 21.0902C17.1527 19.1051 18.8262 17.4152 20.8195 17.4726ZM21.9844 21.1476C21.9827 20.9039 21.9088 20.6662 21.7718 20.4646C21.6349 20.263 21.4412 20.1066 21.2153 20.0152C20.9893 19.9239 20.7414 19.9016 20.5028 19.9514C20.2642 20.0011 20.0458 20.1206 19.8752 20.2947C19.7046 20.4687 19.5895 20.6895 19.5446 20.929C19.4996 21.1685 19.5268 21.416 19.6227 21.6401C19.7186 21.8641 19.8788 22.0547 20.0832 22.1875C20.2875 22.3204 20.5266 22.3896 20.7703 22.3863C21.0945 22.3799 21.4033 22.2465 21.6303 22.0149C21.8573 21.7833 21.9844 21.4719 21.9844 21.1476Z" fill="#E13CBF"/>
<path d="M8.71172 27.5625C8.46804 27.5657 8.22888 27.4965 8.02457 27.3637C7.82026 27.2308 7.66 27.0403 7.56411 26.8162C7.46823 26.5922 7.44104 26.3447 7.48598 26.1052C7.53093 25.8657 7.646 25.6449 7.81659 25.4708C7.98718 25.2968 8.20561 25.1773 8.44418 25.1276C8.68276 25.0778 8.93073 25.1 9.15666 25.1914C9.3826 25.2828 9.57631 25.4392 9.71323 25.6408C9.85016 25.8424 9.92414 26.0801 9.92579 26.3238C9.92795 26.485 9.89821 26.645 9.83827 26.7947C9.77833 26.9444 9.68937 27.0807 9.57653 27.1958C9.46368 27.3109 9.32918 27.4026 9.18076 27.4655C9.03234 27.5285 8.87293 27.5614 8.71172 27.5625Z" fill="#E13CBF"/>
<path d="M16.8902 26.332C16.8919 26.5757 16.8211 26.8144 16.6869 27.0179C16.5526 27.2213 16.361 27.3803 16.1364 27.4747C15.9117 27.5691 15.664 27.5946 15.4248 27.5481C15.1856 27.5015 14.9655 27.385 14.7926 27.2132C14.6197 27.0415 14.5017 26.8222 14.4536 26.5833C14.4054 26.3444 14.4293 26.0966 14.5222 25.8713C14.6151 25.646 14.7728 25.4533 14.9753 25.3177C15.1778 25.1822 15.4161 25.1098 15.6598 25.1098C15.984 25.1119 16.2945 25.2411 16.5246 25.4696C16.7547 25.6982 16.8859 26.0078 16.8902 26.332Z" fill="#E13CBF"/>
<path d="M16.8902 33.2883C16.9047 33.4577 16.8838 33.6283 16.829 33.7892C16.7742 33.9502 16.6866 34.0981 16.5718 34.2235C16.457 34.3489 16.3174 34.4492 16.1619 34.518C16.0064 34.5868 15.8384 34.6226 15.6683 34.6231C15.4983 34.6237 15.33 34.589 15.174 34.5213C15.018 34.4535 14.8778 34.3542 14.7622 34.2295C14.6465 34.1049 14.5579 33.9576 14.5021 33.797C14.4462 33.6364 14.4242 33.466 14.4375 33.2965C14.4617 32.9884 14.6008 32.7008 14.8273 32.4906C15.0538 32.2805 15.3511 32.1632 15.6601 32.1622C15.9691 32.1612 16.2671 32.2764 16.495 32.485C16.7229 32.6937 16.864 32.9804 16.8902 33.2883Z" fill="#E13CBF"/>
<path d="M9.92578 33.3047C9.92149 33.6289 9.79022 33.9386 9.56016 34.1671C9.33009 34.3956 9.01958 34.5248 8.69531 34.527C8.37098 34.5185 8.06253 34.3848 7.83465 34.1538C7.60677 33.9229 7.47718 33.6127 7.47305 33.2883C7.47737 32.9634 7.61004 32.6534 7.84211 32.4259C8.07417 32.1984 8.38678 32.072 8.71172 32.0742C8.87223 32.0753 9.03095 32.108 9.17884 32.1704C9.32672 32.2328 9.46086 32.3237 9.57359 32.438C9.68633 32.5523 9.77546 32.6876 9.83589 32.8363C9.89632 32.985 9.92686 33.1442 9.92578 33.3047Z" fill="#E13CBF"/>
<path d="M20.3602 29.8348C20.3591 29.9952 20.3261 30.1539 20.2629 30.3014C20.1998 30.4489 20.1079 30.5824 19.9925 30.6939C19.8772 30.8055 19.7407 30.8929 19.5911 30.951C19.4416 31.0091 19.2819 31.0368 19.1215 31.0324C18.8794 31.0291 18.6438 30.954 18.4445 30.8167C18.2452 30.6793 18.0911 30.4858 18.0019 30.2608C17.9127 30.0357 17.8923 29.7893 17.9433 29.5526C17.9944 29.316 18.1145 29.0998 18.2885 28.9316C18.4626 28.7633 18.6826 28.6505 18.9209 28.6075C19.1591 28.5644 19.4047 28.5931 19.6266 28.6899C19.8485 28.7866 20.0367 28.9471 20.1673 29.1509C20.2979 29.3547 20.365 29.5927 20.3602 29.8348Z" fill="#E13CBF"/>
<path d="M10.9676 22.8703C10.9643 22.5462 11.09 22.234 11.3169 22.0024C11.5438 21.7709 11.8534 21.639 12.1775 21.6357C12.5017 21.6325 12.8139 21.7581 13.0454 21.985C13.2769 22.2119 13.4088 22.5215 13.4121 22.8457C13.4137 23.0062 13.3837 23.1655 13.3238 23.3144C13.2638 23.4633 13.1752 23.5989 13.0628 23.7136C12.9505 23.8282 12.8166 23.9196 12.6689 23.9825C12.5213 24.0454 12.3627 24.0787 12.2021 24.0803C12.0416 24.0819 11.8824 24.0519 11.7335 23.9919C11.5846 23.932 11.4489 23.8433 11.3343 23.731C11.2196 23.6186 11.1282 23.4848 11.0653 23.3371C11.0024 23.1894 10.9692 23.0308 10.9676 22.8703Z" fill="#E13CBF"/>
<path d="M12.1324 31.0324C11.8249 30.9975 11.5421 30.8472 11.341 30.6119C11.14 30.3766 11.0357 30.0737 11.0492 29.7645C11.0628 29.4553 11.1931 29.1627 11.4139 28.9459C11.6348 28.729 11.9297 28.604 12.2391 28.5961C12.4067 28.5918 12.5733 28.6221 12.7287 28.6849C12.8841 28.7478 13.0249 28.842 13.1424 28.9616C13.2599 29.0812 13.3515 29.2237 13.4115 29.3802C13.4715 29.5367 13.4987 29.7039 13.4914 29.8714C13.4841 30.0389 13.4424 30.2031 13.3689 30.3538C13.2954 30.5044 13.1917 30.6384 13.0642 30.7473C12.9368 30.8562 12.7883 30.9377 12.628 30.9867C12.4677 31.0358 12.299 31.0513 12.1324 31.0324Z" fill="#E13CBF"/>
</svg>
