<svg width="43" height="35" viewBox="0 0 43 35" fill="none" xmlns="http://www.w3.org/2000/svg">
<path d="M0.909546 16.8087C2.27638 14.8202 3.63227 12.8317 5.02098 10.8542C5.30528 10.4499 5.4693 10.0675 5.41462 9.57584C5.39921 9.29198 5.39921 9.00749 5.41462 8.72363L5.01004 8.69085C3.87284 8.61437 3.009 7.75124 2.98713 6.61496C2.96526 5.47868 2.96526 4.10204 2.98713 2.84557C2.98854 2.56824 3.04498 2.29393 3.15318 2.03853C3.26138 1.78312 3.41919 1.55169 3.61748 1.35762C3.81577 1.16356 4.05062 1.0107 4.30841 0.907909C4.56621 0.805114 4.84185 0.75442 5.11939 0.758757H19.1704C19.4489 0.752956 19.7257 0.802567 19.9847 0.904705C20.2438 1.00684 20.48 1.15946 20.6794 1.35368C20.8789 1.54789 21.0377 1.77982 21.1465 2.03595C21.2554 2.29208 21.3122 2.5673 21.3136 2.84557C21.3428 4.09839 21.3428 5.35486 21.3136 6.61496C21.2917 7.77309 20.406 8.63622 19.247 8.70178L18.8752 8.72363C18.897 9.52121 18.7768 10.2642 19.3344 11.0071C20.6247 12.7334 21.8166 14.5252 23.0194 16.317C23.2275 16.6285 23.3448 16.9916 23.3584 17.3659C23.3803 22.1732 23.3693 26.9806 23.3693 31.7879C23.3693 33.7436 22.1009 35.011 20.1327 35.011H4.24461C2.46227 35.011 1.45628 34.2462 0.964219 32.5308C0.953285 32.509 0.931416 32.4871 0.920481 32.4653C0.913191 27.2501 0.909546 22.0312 0.909546 16.8087ZM2.91059 18.0979V27.0243H21.3901V18.0979H2.91059ZM20.4826 16.0767L20.2092 15.6506C19.236 14.2521 18.2847 12.8317 17.3006 11.4441C17.0285 11.0836 16.893 10.6385 16.9179 10.1877C16.9397 9.70695 16.9288 9.21529 16.9288 8.7127H7.38286C7.38286 9.23714 7.36099 9.73972 7.39379 10.2423C7.41209 10.667 7.28051 11.0847 7.02202 11.4223C6.0379 12.8317 5.06471 14.2521 4.08059 15.6615L3.81816 16.0767H20.4826ZM21.412 29.0455H2.87778C2.87778 30.0725 2.85591 31.0668 2.88872 32.0501C2.89965 32.6401 3.36984 33.0225 3.99312 33.0334H20.417C20.9528 32.9897 21.3792 32.5964 21.4011 32.061C21.423 31.0668 21.412 30.0725 21.412 29.0455ZM12.1504 6.72422H18.908C19.236 6.72422 19.3672 6.63681 19.3563 6.28719C19.3344 5.23831 19.3454 4.18944 19.3563 3.12964C19.3563 2.8128 19.2798 2.70354 18.9408 2.70354H5.33808C4.99911 2.70354 4.92256 2.83465 4.9335 3.14057C4.94443 4.16759 4.95537 5.18369 4.9335 6.21071C4.92256 6.63681 5.07565 6.73514 5.4693 6.72422C7.68903 6.71329 9.9197 6.72422 12.1504 6.72422Z" fill="#E13CBF"/>
<path d="M34.7742 34.9999C33.169 34.9978 31.6005 34.5199 30.2672 33.6268C28.934 32.7338 27.8957 31.4656 27.284 29.9828C26.6722 28.5 26.5144 26.8692 26.8305 25.2967C27.1465 23.7243 27.9223 22.2808 29.0596 21.149C30.1969 20.0172 31.6447 19.2479 33.2197 18.9385C34.7947 18.629 36.4262 18.7933 37.9077 19.4106C39.3892 20.0278 40.6542 21.0703 41.5426 22.4061C42.431 23.7419 42.9029 25.311 42.8986 26.9149C42.8928 29.0631 42.0339 31.1211 40.5106 32.6371C38.9873 34.153 36.9241 35.0028 34.7742 34.9999ZM38.3279 21.9109C36.1629 20.2174 32.4341 20.272 30.1707 22.8287C27.9072 25.3853 28.3774 28.7613 29.8098 30.4111L38.3279 21.9109ZM39.815 23.4296L31.3079 31.9298C33.3526 33.4922 36.9064 33.5687 39.2355 31.1213C41.5646 28.6739 41.2693 25.2323 39.815 23.4296Z" fill="#E13CBF"/>
<path d="M30.0066 18.797C27.9072 18.797 26.0155 17.5951 25.2391 15.6613C24.4628 13.7274 24.7143 11.6625 26.267 10.0564C28.8476 7.40142 31.4719 4.80109 34.1071 2.20076C36.1191 0.223197 39.3339 0.2669 41.3459 2.24446C43.3579 4.22202 43.4344 7.44512 41.488 9.44453C38.8746 12.1323 36.1957 14.7654 33.5276 17.4094C32.5982 18.349 31.3516 18.797 30.0066 18.797ZM36.8189 11.2364C37.9452 10.1438 39.148 9.09491 40.2196 7.904C41.2912 6.71309 41.1381 4.70276 39.9134 3.56648C39.3236 3.01375 38.547 2.70341 37.7384 2.69734C36.9298 2.69126 36.1486 2.98989 35.5505 3.5337C35.1131 3.92703 34.7085 4.35313 34.293 4.76831L32.3248 6.73495L36.8189 11.2364ZM30.8486 8.23177C29.8317 9.25879 28.782 10.2858 27.7432 11.3456C26.4747 12.6458 26.4747 14.6561 27.7432 15.9126C28.3457 16.5124 29.1616 16.8492 30.0121 16.8492C30.8626 16.8492 31.6785 16.5124 32.2811 15.9126C33.134 15.0822 33.965 14.23 34.807 13.3997C35.0147 13.1921 35.2334 12.9954 35.4302 12.8206L30.8486 8.23177Z" fill="#E13CBF"/>
<path d="M11.1662 21.5066C11.1662 21.0696 11.1662 20.6325 11.1662 20.1955C11.1772 19.5181 11.5599 19.0811 12.1613 19.092C12.7627 19.1029 13.1345 19.529 13.1345 20.2174C13.1345 20.6544 13.1345 21.0805 13.1345 21.5721C13.6484 21.5721 14.1405 21.5612 14.6216 21.5721C15.1027 21.5831 15.6276 22.031 15.6057 22.5992C15.5838 23.1673 15.1793 23.5169 14.5779 23.5279H13.1345V24.3145C13.1345 25.5491 12.872 26.008 12.1613 26.0189C11.4505 26.0298 11.1662 25.56 11.1662 24.3036V23.5388H9.74474C9.11053 23.5279 8.69501 23.1564 8.68408 22.5882C8.67314 22.0201 9.08866 21.594 9.73381 21.5721L11.0897 21.5503L11.1662 21.5066Z" fill="#E13CBF"/>
</svg>
