<svg width="42" height="43" viewBox="0 0 42 43" fill="none" xmlns="http://www.w3.org/2000/svg">
<path d="M6.27071e-07 25.0902C0.133301 24.7827 0.225586 24.4445 0.399902 24.1576C0.851074 23.3684 1.55859 22.8867 2.44043 22.815C3.32227 22.7432 4.11182 22.405 4.38867 21.3391C4.50147 20.8984 4.57324 20.6114 4.26563 20.2527C3.99804 19.9268 3.76119 19.5769 3.55811 19.2073C3.27723 18.7326 3.15192 18.1819 3.19972 17.6324C3.24753 17.0829 3.46606 16.5621 3.82471 16.1429C4.37366 15.5176 4.96279 14.9288 5.58838 14.3801C6.01297 14.0192 6.54006 13.8004 7.09551 13.7545C7.65097 13.7085 8.20687 13.8377 8.68506 14.1239C9.14649 14.4006 9.55664 14.7286 10.0181 15.0053C10.0822 15.0435 10.1533 15.0687 10.2272 15.0792C10.3012 15.0898 10.3765 15.0855 10.4487 15.0668C10.8992 14.9059 11.3407 14.7212 11.7715 14.5133C11.9048 14.4415 12.0043 14.3199 12.0483 14.1751C12.1509 13.7344 12.2022 13.2835 12.2944 12.853C12.3867 12.4226 12.9609 11.8999 13.5044 11.9921C13.7769 12.0399 14.0202 12.1917 14.1828 12.4155C14.3455 12.6392 14.4147 12.9174 14.376 13.1912C14.2734 13.9497 14.1299 14.6978 13.9863 15.446C13.9043 15.8867 13.6069 16.1429 13.1968 16.3069C12.3662 16.6349 11.5254 16.9833 10.7051 17.342C10.2642 17.5368 9.86426 17.5265 9.46436 17.2395L7.82373 16.0917C7.38281 15.7842 7.11621 15.815 6.73682 16.1839L5.63965 17.2805C5.26025 17.67 5.22949 17.916 5.53711 18.3669C5.84473 18.8179 6.26514 19.4226 6.64453 19.9453C7.02393 20.468 6.98291 20.8472 6.73682 21.3596C6.38884 22.0836 6.08076 22.826 5.81397 23.5836C5.60889 24.1678 5.26026 24.4958 4.65528 24.588C4.05029 24.6803 3.39404 24.8032 2.7583 24.916C2.30713 25.0082 2.13281 25.2132 2.13281 25.6846C2.13281 26.1561 2.12256 26.8018 2.13281 27.3655C2.14307 27.9292 2.33789 28.0419 2.77881 28.1239C3.41455 28.2366 4.04004 28.3596 4.67578 28.4518C5.31152 28.5441 5.58838 28.8311 5.79346 29.3845C6.07031 30.1634 6.39844 30.9321 6.74707 31.6803C6.97266 32.1824 6.97266 32.6129 6.65479 33.0639C6.33692 33.5148 5.896 34.1297 5.52686 34.6729C5.15772 35.2161 5.26025 35.3494 5.59863 35.6978C5.93701 36.0463 6.38818 36.4972 6.78809 36.8867C7.18799 37.2762 7.39307 37.2352 7.77246 36.9687C8.31592 36.5997 8.84912 36.2308 9.38232 35.8413C9.91553 35.4518 10.2847 35.4928 10.7974 35.7286C11.5459 36.077 12.3149 36.405 13.0942 36.6817C13.648 36.8764 13.9453 37.2249 14.0273 37.7988C14.1094 38.3728 14.2427 39.039 14.3452 39.6539C14.4478 40.2688 14.6426 40.3303 15.1553 40.3406H16.7959C17.2573 40.3303 17.4727 40.1663 17.5547 39.7051C17.6367 39.2439 17.7905 38.4958 17.8726 37.8911C17.9546 37.2864 18.3032 36.8355 18.9697 36.6305C19.6737 36.412 20.3566 36.1307 21.0103 35.7901C21.605 35.4826 22.1074 35.4928 22.6406 35.9028C23.1738 36.3128 23.6147 36.5997 24.1172 36.9379C24.6196 37.2762 24.8042 37.2147 25.2041 36.8355L26.332 35.7081C26.6704 35.3596 26.6909 35.0829 26.4141 34.6832C26.1372 34.2835 25.6655 33.607 25.2861 33.0741C24.9067 32.5412 24.958 32.1722 25.1939 31.6598C25.5473 30.9216 25.8622 30.1656 26.1372 29.3947C26.332 28.8413 26.6704 28.5338 27.2446 28.4518C27.8188 28.3699 28.3726 28.2571 28.9365 28.1546C29.0988 28.1217 29.2633 28.1012 29.4287 28.0931C29.6838 28.0917 29.9309 28.1826 30.1241 28.3491C30.3174 28.5156 30.4438 28.7463 30.4801 28.9987C30.5164 29.2512 30.46 29.5082 30.3214 29.7223C30.1828 29.9363 29.9713 30.0931 29.7261 30.1634C29.2749 30.2762 28.8135 30.3172 28.3623 30.4299C28.1976 30.4895 28.0595 30.6058 27.9727 30.7579C27.8394 30.9731 27.8189 31.26 27.6753 31.465C27.2856 32.0287 27.4087 32.4797 27.8291 32.9819C28.2495 33.4841 28.7212 34.222 28.7417 35.0419C28.7622 35.8618 28.5571 36.4562 28.0444 36.9994C27.5317 37.5426 27.0293 38.0756 26.4756 38.5573C25.481 39.4387 24.2402 39.5207 23.1123 38.8135C22.7227 38.5675 22.3535 38.2703 21.9536 38.0346C21.7976 37.9581 21.6194 37.9399 21.4512 37.9833C21.2051 38.0448 20.9897 38.2396 20.7334 38.2805C20.0566 38.4035 19.8516 38.834 19.7593 39.4694C19.6697 40.0716 19.4863 40.656 19.2158 41.2015C18.8569 41.9292 18.1289 42.2366 17.3906 42.4723H14.5195C14.464 42.4398 14.4057 42.4124 14.3452 42.3904C13.2173 42.0624 12.5303 41.3347 12.2842 40.1868C12.1919 39.7564 12.1509 39.3259 12.0381 38.9057C11.9865 38.7371 11.8729 38.5943 11.7202 38.506C11.3306 38.3113 10.9102 38.1781 10.5205 37.9833C10.4347 37.9321 10.3348 37.9095 10.2353 37.9187C10.1358 37.9279 10.0418 37.9685 9.9668 38.0346C9.54249 38.3557 9.10091 38.6534 8.64404 38.9262C8.16171 39.2069 7.60341 39.3292 7.04784 39.2759C6.49227 39.2226 5.96745 38.9963 5.54736 38.629C4.93526 38.0835 4.35657 37.5017 3.81445 36.8867C3.26074 36.2615 3.10693 35.4928 3.24023 34.6627C3.37354 33.8325 3.79395 33.3611 4.23486 32.8076C4.67578 32.2542 4.49121 32.08 4.35791 31.6085C4.08105 30.6246 3.48633 30.2864 2.53272 30.2249C1.5791 30.1634 0.871582 29.692 0.399902 28.8823C0.23584 28.5953 0.123047 28.2674 -0.0102539 27.9599C-0.00341797 27.0033 6.27071e-07 26.0468 6.27071e-07 25.0902Z" fill="#E13CBF"/>
<path d="M41.9897 13.2937C41.9897 13.5909 42.0103 13.8984 41.9897 14.1956C41.9627 14.6905 41.7808 15.1645 41.4699 15.5506C41.159 15.9367 40.7347 16.2156 40.2568 16.3479C39.9433 16.4464 39.6202 16.5117 39.293 16.5426C38.9648 16.5631 38.8521 16.7579 38.7085 17.0141C38.3906 17.5675 38.4829 17.998 38.8726 18.5104C39.8159 19.7608 39.6826 20.9189 38.5854 22.0258C38.2573 22.3538 37.9395 22.692 37.5908 22.9994C37.22 23.3284 36.7549 23.5323 36.2616 23.5819C35.7682 23.6316 35.2718 23.5246 34.8428 23.2762C34.692 23.2111 34.5533 23.121 34.4326 23.0097C33.8789 22.364 33.2842 22.5895 32.6895 22.9277C32.5859 23.0018 32.513 23.1111 32.4844 23.2352C32.4023 23.5836 32.3613 23.9321 32.269 24.2806C31.9922 25.3464 31.1411 26.0434 30.0542 26.0844C29.48 26.1049 28.9058 26.1049 28.3315 26.0844C27.8085 26.0683 27.3056 25.8796 26.9012 25.5477C26.4968 25.2158 26.2137 24.7594 26.0962 24.2498C26.0508 24.1068 26.0233 23.9588 26.0142 23.8091C26.0244 23.1942 25.7373 22.856 25.1426 22.6715C24.8042 22.569 24.5786 22.5485 24.2915 22.774C23.6045 23.3274 22.8662 23.7169 21.9229 23.5426C20.4565 23.2762 18.6826 21.0726 18.9697 19.7095C19.0723 19.1971 19.3901 18.7154 19.6875 18.2644C19.9849 17.8135 19.9336 17.6905 19.8105 17.3011C19.626 16.7271 19.2773 16.5324 18.7236 16.4709C17.5752 16.3479 16.6934 15.7637 16.4883 14.5851C16.3502 13.7369 16.3467 12.8722 16.478 12.0229C16.6318 10.998 17.3701 10.4035 18.375 10.1678C18.5736 10.1177 18.7759 10.0835 18.98 10.0653C19.3594 10.0448 19.5337 9.83985 19.7183 9.50164C20.0156 8.9482 19.8721 8.56899 19.5337 8.10779C18.5903 6.82667 18.7031 5.6788 19.8208 4.56167C20.1284 4.2542 20.436 3.93648 20.7539 3.63927C21.5947 2.8911 22.7022 2.79886 23.6763 3.38304C23.7985 3.44708 23.9122 3.52628 24.0147 3.61877C24.4658 4.09022 24.9478 4.10047 25.5015 3.78275C25.7681 3.62902 25.9219 3.50603 25.9526 3.18831C26.168 1.13853 27.2959 0.359617 29.1313 0.492853C29.4082 0.513351 29.6748 0.492853 29.9517 0.492853C31.1616 0.523599 32.0845 1.30252 32.3306 2.48114C32.3905 2.72012 32.4316 2.96342 32.4536 3.20881C32.4741 3.53678 32.669 3.63927 32.9253 3.78275C33.4893 4.10047 33.9097 3.99798 34.4224 3.61877C35.6631 2.68612 36.8423 2.8091 37.9395 3.91599C38.2061 4.18246 38.4829 4.44893 38.7495 4.72565C39.6519 5.66855 39.7441 6.85742 39.0161 7.9438C38.9811 8.00273 38.9399 8.05771 38.8931 8.10779C38.4214 8.55874 38.4111 9.03019 38.7188 9.59388C38.8623 9.86035 38.9854 10.0346 39.3032 10.0551C39.5486 10.0783 39.7919 10.1194 40.0313 10.1781C41.2105 10.4343 41.9795 11.3567 42.0103 12.5558C42.0205 12.8018 42.0103 13.0478 42.0103 13.2937H41.9897ZM36.022 21.4621C36.1267 21.4023 36.2262 21.3337 36.3193 21.2571C36.5757 21.0112 36.8115 20.7447 37.0781 20.509C37.3447 20.2732 37.396 20.0375 37.1602 19.7403C36.9243 19.4431 36.6475 19.0024 36.3809 18.6334C36.1143 18.2644 36.022 17.752 36.2578 17.2498C36.4937 16.7476 36.7808 16.0814 36.9961 15.4767C37.2114 14.8721 37.5396 14.6568 38.0933 14.5748C38.647 14.4929 38.9751 14.4006 39.4263 14.3494C39.8774 14.2981 39.8877 14.1649 39.8774 13.8369C39.8672 13.509 39.8569 13.099 39.8774 12.73C39.898 12.3611 39.7339 12.2586 39.4365 12.2073C38.9648 12.1356 38.4932 12.0331 38.0215 11.9614C37.5498 11.8896 37.1909 11.6027 37.0166 11.121C36.8423 10.6393 36.5449 9.90134 36.2681 9.30691C35.9912 8.71247 36.063 8.36401 36.3911 7.92331C36.7192 7.4826 36.9346 7.13414 37.2217 6.75493C37.3857 6.52946 37.396 6.34498 37.1807 6.14C36.9653 5.93502 36.6167 5.58656 36.3398 5.29959C36.063 5.01262 35.9502 5.09461 35.7246 5.25859L34.5147 6.10925C34.1045 6.40647 33.6841 6.44746 33.2021 6.23224C32.7202 6.01701 31.9512 5.69929 31.3154 5.45332C30.8643 5.27909 30.5977 4.98187 30.5156 4.50017C30.4336 4.01848 30.3413 3.53678 30.2695 3.04483C30.2183 2.74761 30.085 2.58363 29.7568 2.59388C29.4287 2.60413 28.9878 2.60413 28.6084 2.59388C28.229 2.58363 28.188 2.71686 28.147 2.99358C28.0752 3.46503 27.9727 3.93648 27.9009 4.40793C27.8762 4.64607 27.7825 4.87183 27.6314 5.05753C27.4802 5.24322 27.2781 5.38078 27.0498 5.45332C26.4243 5.68904 25.8091 5.93502 25.2041 6.22199C24.5991 6.50896 24.312 6.40647 23.9019 6.10925C23.4917 5.81203 23.1123 5.56606 22.7329 5.27909C22.3535 4.99212 22.2715 5.08436 22.0562 5.32009C21.8408 5.55581 21.5435 5.85303 21.2769 6.099C21.0103 6.34497 21.041 6.52946 21.2256 6.77543C21.4102 7.0214 21.769 7.56459 22.0459 7.9438C22.1902 8.12559 22.2787 8.34533 22.3005 8.57637C22.3224 8.80741 22.2767 9.03982 22.1689 9.24541C21.8818 9.86035 21.6255 10.4958 21.3794 11.1312C21.2051 11.5822 20.9077 11.8486 20.436 11.9306L18.9595 12.2278C18.6519 12.2791 18.498 12.4123 18.5186 12.7403C18.5391 13.0683 18.5288 13.509 18.5186 13.8882C18.5083 14.2674 18.6416 14.3084 18.9185 14.3494L20.3335 14.5953C20.5717 14.62 20.7976 14.7136 20.9834 14.8647C21.1692 15.0158 21.3068 15.2178 21.3794 15.446C21.6152 16.0712 21.8716 16.6861 22.1484 17.2908C22.4253 17.8955 22.333 18.1825 22.0254 18.6027C21.7178 19.0229 21.4819 19.3918 21.1948 19.771C20.9077 20.1502 21 20.2322 21.2461 20.4475C21.4922 20.6627 21.7793 20.9599 22.0254 21.2264C22.2715 21.4929 22.4561 21.4621 22.7022 21.2776C22.9482 21.0931 23.4507 20.7652 23.8096 20.4987C24.1685 20.2322 24.7324 20.1093 25.2554 20.3757C25.8078 20.6431 26.3762 20.8758 26.9575 21.0726C27.5112 21.2674 27.8188 21.6158 27.8906 22.1898C27.9624 22.7637 28.0547 23.1019 28.1265 23.5631C28.1675 23.8399 28.311 23.9628 28.5879 23.9628C28.8647 23.9628 29.3569 23.9423 29.7363 23.9628C30.1157 23.9833 30.208 23.8194 30.249 23.5221C30.3208 23.0404 30.4233 22.5587 30.4951 22.0668C30.5669 21.5748 30.8438 21.2879 31.2949 21.1136C31.9409 20.8677 32.5869 20.6012 33.2227 20.3142C33.4178 20.2163 33.6365 20.1749 33.854 20.1948C34.0715 20.2147 34.279 20.2952 34.4531 20.427L35.6631 21.2674C35.7759 21.3494 35.8887 21.3904 36.022 21.4621Z" fill="#E13CBF"/>
<path d="M15.9448 33.6583C14.9507 33.6501 13.9691 33.4352 13.0624 33.0274C12.1558 32.6196 11.344 32.0277 10.6786 31.2893C10.0132 30.551 9.50875 29.6824 9.19732 28.7387C8.88589 27.7949 8.7743 26.7968 8.86963 25.8077C9.20801 22.2308 12.2637 19.4431 15.8833 19.3918C16.4883 19.3816 16.9805 19.812 17.0317 20.386C17.0415 20.5266 17.0226 20.6678 16.9764 20.801C16.9301 20.9342 16.8574 21.0566 16.7626 21.161C16.6677 21.2653 16.5528 21.3494 16.4246 21.4082C16.2964 21.467 16.1576 21.4993 16.0166 21.5031C14.7759 21.5646 13.6582 21.9131 12.7046 22.7432C12.0802 23.2788 11.5979 23.9603 11.3005 24.7271C11.0031 25.4939 10.8999 26.3223 11.0001 27.1385C11.1002 27.9548 11.4006 28.7337 11.8746 29.406C12.3485 30.0782 12.9813 30.623 13.7167 30.9919C14.4521 31.3608 15.2673 31.5423 16.0898 31.5204C16.9123 31.4985 17.7166 31.2738 18.4313 30.8662C19.1459 30.4587 19.7488 29.8809 20.1862 29.1844C20.6236 28.4878 20.882 27.694 20.9385 26.8735C20.9692 26.4738 20.9692 26.0741 21.2769 25.7667C21.5845 25.4592 22.0562 25.3567 22.415 25.5207C22.6181 25.6034 22.7914 25.7455 22.9122 25.9284C23.033 26.1113 23.0956 26.3265 23.0918 26.5456C23.1328 29.3333 21.2358 32.121 18.6108 33.1151C18.1913 33.2766 17.7592 33.4034 17.3188 33.4943C16.8677 33.5968 16.4062 33.6071 15.9448 33.6583Z" fill="#E13CBF"/>
<path d="M29.2031 18.3772C28.1972 18.3792 27.2133 18.0831 26.3758 17.5262C25.5383 16.9693 24.8848 16.1767 24.498 15.2486C24.1112 14.3205 24.0084 13.2986 24.2027 12.3121C24.3969 11.3256 24.8795 10.4188 25.5893 9.70646C26.2992 8.9941 27.2044 8.50812 28.1906 8.30999C29.1768 8.11185 30.1996 8.21046 31.1297 8.59334C32.0598 8.97622 32.8554 9.62618 33.416 10.461C33.9765 11.2959 34.2768 12.2781 34.2788 13.2835C34.2815 13.9514 34.1522 14.6133 33.8983 15.2312C33.6445 15.8491 33.271 16.4108 32.7994 16.8841C32.3279 17.3573 31.7674 17.7328 31.1503 17.9891C30.5331 18.2453 29.8714 18.3772 29.2031 18.3772ZM29.1929 16.2454C29.5814 16.2441 29.9658 16.1663 30.3242 16.0164C30.6826 15.8666 31.0079 15.6477 31.2817 15.3722C31.5554 15.0966 31.7722 14.7699 31.9196 14.4107C32.067 14.0514 32.1422 13.6667 32.1409 13.2784C32.1395 12.8901 32.0617 12.5059 31.9118 12.1476C31.7619 11.7894 31.5428 11.4642 31.2672 11.1906C30.9915 10.917 30.6646 10.7003 30.3052 10.553C29.9458 10.4056 29.5608 10.3305 29.1724 10.3318C27.5728 10.3318 26.2397 11.6847 26.2397 13.304C26.2425 14.0851 26.5548 14.8332 27.1083 15.3845C27.6618 15.9359 28.4114 16.2454 29.1929 16.2454Z" fill="#E13CBF"/>
</svg>
