<svg width="42" height="32" viewBox="0 0 42 32" fill="none" xmlns="http://www.w3.org/2000/svg">
<path d="M22.0194 8.80115C17.0833 8.80115 13.3275 9.91617 10.0225 12.0921C8.79918 12.904 7.6188 13.7917 6.6745 14.9283C5.7302 16.065 6.27747 18.0461 7.80123 18.4899C8.74553 18.7606 9.50741 18.4358 10.1834 17.7754C11.9907 16.0069 14.1966 14.7076 16.6115 13.9892C19.0265 13.2707 21.5783 13.1547 24.0475 13.6509C26.9367 14.2115 29.6022 15.6068 31.72 17.6672C31.9328 17.8815 32.1665 18.0738 32.4175 18.2409C33.4047 18.858 34.628 18.6198 35.3577 17.6997C36.0874 16.7795 35.9693 15.4913 35.0572 14.5928C31.1405 10.7714 26.4405 8.87693 22.0194 8.80115ZM21.0322 17.4723C17.8988 17.5012 15.209 18.609 12.9627 20.7957C12.6211 21.1197 12.3888 21.5435 12.2983 22.0076C12.2078 22.4717 12.2638 22.9527 12.4584 23.383C12.8661 24.2923 13.7353 24.7903 14.7547 24.7037C15.42 24.6496 15.8922 24.2382 16.3751 23.816C18.3817 22.0623 20.6781 21.6076 23.2105 22.3871C24.3051 22.7227 25.185 23.4047 26.0434 24.1624C26.2597 24.3587 26.5124 24.5097 26.787 24.6068C27.0615 24.7039 27.3524 24.745 27.6428 24.7279C27.9332 24.7108 28.2174 24.6357 28.4789 24.5071C28.7403 24.3784 28.9739 24.1987 29.1661 23.9784C29.5609 23.5403 29.7688 22.9629 29.7447 22.3712C29.7206 21.7796 29.4665 21.2214 29.0373 20.8174C26.7946 18.6198 24.1226 17.5156 21.0322 17.4723ZM21.0107 32.0109C21.6003 32.0087 22.176 31.8304 22.6651 31.4984C23.1543 31.1665 23.535 30.6957 23.7591 30.1456C23.9833 29.5955 24.0408 28.9908 23.9245 28.4077C23.8082 27.8246 23.5232 27.2894 23.1056 26.8696C22.688 26.4498 22.1564 26.1642 21.578 26.049C20.9997 25.9338 20.4004 25.994 19.8559 26.2221C19.3115 26.4502 18.8462 26.8359 18.5189 27.3306C18.1916 27.8252 18.0169 28.4067 18.0169 29.0014C18.0169 29.3975 18.0944 29.7898 18.245 30.1556C18.3955 30.5214 18.6162 30.8537 18.8944 31.1333C19.1725 31.4129 19.5027 31.6343 19.8658 31.7849C20.229 31.9355 20.6181 32.0123 21.0107 32.0109Z" fill="white"/>
<path d="M0 9.63471C0.289729 8.6496 1.06234 8.05419 1.77057 7.42632C5.77312 3.82145 10.4088 1.45068 15.699 0.508864C24.069 -0.974221 31.6985 0.833627 38.5125 5.99736C39.4568 6.71184 40.3367 7.53457 41.2059 8.35731C42.0751 9.18004 42.2683 10.6956 41.3884 11.6374C40.5084 12.5792 39.1349 12.6117 38.1369 11.6374C36.4737 10.0244 34.6602 8.60629 32.6321 7.5021C28.6188 5.32619 24.348 4.33024 19.8089 4.5684C14.558 4.83543 9.87941 6.63245 5.77312 9.95947C5.16147 10.4466 4.59274 10.9879 4.02402 11.5292C2.53245 12.9365 0.75115 12.5143 0.0643849 10.5765C0.0493901 10.5391 0.0314483 10.5029 0.0107314 10.4683L0 9.63471Z" fill="#E13CBF"/>
<path d="M22.0194 8.80115C26.4405 8.87693 31.1405 10.7714 35.0572 14.5928C35.9693 15.4804 36.0874 16.7687 35.3577 17.6997C34.628 18.6306 33.4047 18.858 32.4175 18.2409C32.1665 18.0738 31.9328 17.8815 31.72 17.6672C29.6022 15.6068 26.9367 14.2115 24.0475 13.6509C21.5783 13.1547 19.0265 13.2707 16.6115 13.9892C14.1966 14.7076 11.9907 16.0069 10.1834 17.7754C9.5074 18.4358 8.73479 18.7606 7.80122 18.4899C6.27746 18.0569 5.65508 16.1516 6.6745 14.9283C7.69392 13.7051 8.79918 12.904 10.0225 12.0921C13.3383 9.91617 17.0833 8.80115 22.0194 8.80115Z" fill="#E13CBF"/>
<path d="M21.0322 17.4723C24.1226 17.5156 26.7946 18.6198 29.0266 20.7957C29.4557 21.1997 29.7099 21.7579 29.734 22.3496C29.7581 22.9412 29.5502 23.5186 29.1553 23.9568C28.9632 24.1771 28.7296 24.3568 28.4681 24.4854C28.2067 24.6141 27.9225 24.6891 27.6321 24.7063C27.3417 24.7234 27.0508 24.6822 26.7763 24.5851C26.5017 24.4881 26.249 24.337 26.0327 24.1408C25.185 23.3938 24.3051 22.7118 23.1998 22.3654C20.6674 21.586 18.371 22.0407 16.3643 23.7944C15.8815 24.2166 15.4093 24.6171 14.744 24.6821C13.7246 24.7687 12.8661 24.2707 12.4476 23.3614C12.2531 22.931 12.1971 22.45 12.2876 21.9859C12.378 21.5219 12.6104 21.098 12.952 20.7741C15.2054 18.609 17.8988 17.5084 21.0322 17.4723Z" fill="#E13CBF"/>
<path d="M21.0107 32.0109C20.4216 32.0109 19.8457 31.8349 19.3557 31.5052C18.8656 31.1754 18.4832 30.7067 18.2568 30.158C18.0304 29.6094 17.9701 29.0054 18.0835 28.4222C18.1968 27.839 18.4788 27.3028 18.8939 26.881C19.3089 26.4593 19.8385 26.171 20.4157 26.0524C20.993 25.9339 21.5921 25.9904 22.1375 26.2149C22.683 26.4393 23.1504 26.8217 23.4807 27.3137C23.8111 27.8058 23.9896 28.3855 23.9939 28.9798C23.9967 29.3768 23.9216 29.7705 23.773 30.1381C23.6243 30.5057 23.4051 30.84 23.1278 31.1218C22.8505 31.4035 22.5207 31.6272 22.1573 31.7798C21.794 31.9323 21.4043 32.0109 21.0107 32.0109Z" fill="#E13CBF"/>
</svg>
