<svg width="42" height="43" viewBox="0 0 42 43" fill="none" xmlns="http://www.w3.org/2000/svg">
<g clip-path="url(#clip0_126_61)">
<path d="M-1.22115e-05 20.3591C0.109363 19.5955 0.185925 18.8209 0.317175 18.0573C0.95155 14.3482 2.51561 11.0646 4.92186 8.17365L5.33749 7.67183H4.79061C4.47339 7.65771 4.17407 7.52128 3.95574 7.29131C3.73742 7.06134 3.61715 6.7558 3.6203 6.4391C3.61886 6.28151 3.64855 6.12519 3.70768 5.97904C3.76682 5.8329 3.85423 5.69981 3.96494 5.58737C4.07564 5.47492 4.20747 5.38533 4.3529 5.3237C4.49832 5.26207 4.65449 5.22962 4.81249 5.22819C6.01561 5.21365 7.21874 5.21365 8.42186 5.22819C8.73427 5.23104 9.03307 5.35608 9.25398 5.57642C9.47489 5.79676 9.60026 6.09478 9.60311 6.40638C9.62499 7.56274 9.62499 8.7191 9.60311 9.88638C9.59736 10.2114 9.4631 10.521 9.22958 10.7478C8.99605 10.9746 8.68216 11.1002 8.35624 11.0973C8.03964 11.0837 7.73984 10.9515 7.51678 10.727C7.29372 10.5025 7.16384 10.2023 7.15311 9.88638C7.14217 9.75547 7.15311 9.61365 7.15311 9.48274L7.0328 9.37365C6.9891 9.48097 6.93411 9.58336 6.86874 9.6791C3.78436 13.3882 2.3078 17.6427 2.50467 22.4427C2.84374 30.8536 9.09999 38.1846 17.4234 39.7009C24.8828 41.0536 31.0078 38.5664 35.7984 32.7736C37.9094 30.2209 39.1234 27.2318 39.5609 23.9373C39.6594 23.2064 40.2828 22.7155 40.9719 22.8246C41.6609 22.9336 42.1094 23.5664 42 24.2973C40.7422 33.0246 34.3 40.0391 25.725 41.9809C24.7078 42.21 23.6469 42.2973 22.6078 42.4609L22.2469 42.5264H19.6875L18.8781 42.4282C14.7328 41.97 11.0031 40.4646 7.77655 37.8246C3.75155 34.53 1.24686 30.3191 0.317175 25.1918C0.174987 24.4282 0.0984253 23.6646 -1.22115e-05 22.89C-0.0984497 22.1155 -1.22115e-05 21.21 -1.22115e-05 20.3591Z" fill="#E13CBF"/>
<path d="M21.0109 8.00978C28.4484 8.02069 34.5406 14.1298 34.5406 21.5916C34.5406 29.0534 28.4484 35.0971 20.989 35.0861C13.5297 35.0752 7.45935 29.0098 7.47029 21.5698C7.48123 14.1298 13.5734 7.99887 21.0109 8.00978ZM24.664 20.3371C24.5109 17.6316 24.1609 14.9916 22.9687 12.548C22.6475 11.9198 22.2347 11.3426 21.7437 10.8352C21.2406 10.3007 20.7375 10.3116 20.2453 10.8352C19.7627 11.3325 19.3572 11.8987 19.0422 12.5152C17.839 14.9698 17.4781 17.6207 17.3359 20.348L24.664 20.3371ZM17.3359 22.8352C17.4453 25.2025 17.7734 27.4934 18.6156 29.6752C18.9656 30.5916 19.3922 31.4861 20.114 32.1843C20.8359 32.8825 21.2953 32.8061 21.8859 32.1734C22.2668 31.7657 22.5939 31.3111 22.8594 30.8207C23.6906 29.2934 24.0953 27.6243 24.3578 25.9225C24.5109 24.908 24.5875 23.8825 24.7078 22.8352H17.3359ZM25.1125 11.2934C25.8097 12.6956 26.2997 14.1911 26.5672 15.7334C26.8297 17.2607 27.0047 18.7989 27.2125 20.3371H31.9703C31.6094 16.2025 28.6234 12.6134 25.1234 11.2934H25.1125ZM16.8547 11.3152C13.5406 12.5043 10.3687 16.1152 10.0187 20.3371H14.864C15.0281 17.228 15.4984 14.1843 16.8547 11.3152ZM16.8547 31.8025C15.4875 28.9225 15.0281 25.9116 14.864 22.8352H10.0406C10.3031 26.7298 13.2781 30.4498 16.8547 31.8025ZM25.1453 31.8134C28.8531 30.3843 31.6969 26.6425 31.9703 22.8461H27.1359C26.9719 25.9334 26.5125 28.9334 25.1453 31.8025V31.8134Z" fill="#E13CBF"/>
<path d="M39.0469 12.6572C39.6594 12.69 40.064 12.9081 40.2609 13.3772C41.0265 15.1554 41.7047 16.9663 41.9781 18.8972C42.0765 19.6063 41.65 20.2281 40.9719 20.3481C40.8131 20.3747 40.6507 20.3698 40.4939 20.3337C40.3371 20.2977 40.1889 20.2311 40.0579 20.1379C39.9269 20.0447 39.8155 19.9267 39.7303 19.7905C39.645 19.6544 39.5874 19.5028 39.5609 19.3445C39.3203 17.6536 38.7297 16.0827 38.0734 14.5227C37.7781 13.8136 37.9422 13.17 38.5328 12.8427C38.6971 12.7629 38.8694 12.7007 39.0469 12.6572Z" fill="#E13CBF"/>
<path d="M23.5484 0.537109C24.85 0.897109 26.1406 1.2462 27.4312 1.62802C27.9365 1.79165 28.4329 1.98099 28.9187 2.19529C29.7172 2.52256 30.0453 3.19893 29.7609 3.87529C29.4766 4.55165 28.7766 4.74802 27.9562 4.46438C26.6875 4.02802 25.3969 3.62438 24.1062 3.22074C23.8328 3.13347 23.5375 3.13347 23.2641 3.07893C22.961 3.02134 22.6905 2.85281 22.5057 2.60645C22.3209 2.36008 22.2352 2.0537 22.2654 1.74749C22.2955 1.44128 22.4394 1.15739 22.6687 0.951595C22.898 0.745798 23.1962 0.632974 23.5047 0.635291L23.5484 0.537109Z" fill="#E13CBF"/>
<path d="M12.1297 3.43913C12.1625 2.88276 12.3922 2.49004 12.8625 2.29367C14.6234 1.53004 16.4281 0.930038 18.3312 0.66822C18.6527 0.617319 18.9813 0.6938 19.247 0.881328C19.5127 1.06886 19.6943 1.35257 19.7531 1.67186C19.7829 1.83112 19.7803 1.99472 19.7455 2.15297C19.7107 2.31121 19.6444 2.46089 19.5506 2.59313C19.4568 2.72537 19.3373 2.83748 19.1992 2.92284C19.0612 3.00819 18.9073 3.06505 18.7469 3.09004C17.0515 3.31913 15.4656 3.8864 13.8906 4.51913C13.1469 4.82458 12.425 4.50822 12.1953 3.79913C12.1649 3.68082 12.143 3.56052 12.1297 3.43913Z" fill="#E13CBF"/>
<path d="M32.9328 4.57324C33.1844 4.69324 33.4687 4.76961 33.6875 4.92233C35.1697 6.03846 36.4909 7.35259 37.6141 8.82779C38.0625 9.40597 37.9859 10.1587 37.45 10.5841C37.3232 10.6903 37.1758 10.7692 37.017 10.8159C36.8583 10.8627 36.6915 10.8762 36.5273 10.8557C36.363 10.8353 36.2048 10.7812 36.0624 10.6969C35.9201 10.6126 35.7967 10.5 35.7 10.366C34.6587 9.03534 33.4575 7.83728 32.1234 6.7987C31.9133 6.64137 31.7623 6.41809 31.6949 6.16479C31.6274 5.9115 31.6474 5.64293 31.7516 5.40233C31.9375 4.94415 32.3859 4.6387 32.9328 4.57324Z" fill="#E13CBF"/>
</g>
<defs>
<clipPath id="clip0_126_61">
<rect width="42" height="42" fill="white" transform="translate(0 0.537109)"/>
</clipPath>
</defs>
</svg>
