<svg width="38" height="24" viewBox="0 0 38 24" fill="none" xmlns="http://www.w3.org/2000/svg">
<rect width="37.5" height="24" rx="3" fill="#306FC8"/>
<mask id="mask0_129_182" style="mask-type:alpha" maskUnits="userSpaceOnUse" x="0" y="0" width="38" height="24">
<rect width="37.5" height="24" rx="3" fill="url(#paint0_linear_129_182)"/>
</mask>
<g mask="url(#mask0_129_182)">
<path d="M16.2296 17.5758V14.082L14.6144 15.8027L16.2296 17.5758Z" fill="white"/>
<path d="M9.46005 14.5205V15.307L11.7696 15.3022V16.2031H9.46005V17.0658H12.0493L13.2547 15.7884L12.0975 14.5205H9.46005Z" fill="white"/>
<path d="M19.2721 7.90035C19.4071 7.82408 19.4891 7.67156 19.4891 7.48567C19.4891 7.29978 19.4023 7.16631 19.2721 7.09482C19.1468 7.02332 18.9587 7.01855 18.7707 7.01855H17.4688V7.99091H18.7562C18.9587 7.99091 19.1275 7.98138 19.2721 7.90035Z" fill="white"/>
<path d="M1.93826 8.58655H3.37994L2.65669 6.85156L1.93826 8.58655Z" fill="white"/>
<path d="M18.6598 14.5205H17.2856V15.6168H18.6501C19.0503 15.6168 19.3011 15.4261 19.3011 15.0496C19.2962 14.673 19.0359 14.5205 18.6598 14.5205Z" fill="white"/>
<path d="M2.20823 10.3549H3.1147L3.52455 11.332H7.06847V10.5884L7.3867 11.332H9.21893L9.53716 10.5789V11.332H18.3415V9.73999H18.5151C18.6405 9.73999 18.6742 9.75429 18.6742 9.94971V11.332H23.2259V10.9554C23.5875 11.1509 24.1565 11.332 24.9183 11.332H26.8325L27.2471 10.3549H28.1536L28.5635 11.332H32.2424V10.4073L32.8065 11.332H35.7622V5.25H32.8403V5.96497L32.4208 5.25H29.4169V5.96497L29.0504 5.25H24.9906C24.3059 5.25 23.7032 5.34056 23.2259 5.59795V5.25H20.4293V5.59795C20.1014 5.3358 19.6916 5.25 19.2287 5.25H8.99231L8.29799 6.81816L7.60367 5.25H4.3828V5.96497L4.01636 5.25H1.26801L-9.15527e-05 8.1337V11.332H1.79839L2.20823 10.3549ZM23.4236 6.61797C23.7611 6.27002 24.3011 6.10796 25.0292 6.10796H26.0369V7.04218H25.0485C24.6579 7.04218 24.4409 7.09938 24.2336 7.30434C24.0504 7.48546 23.925 7.83341 23.925 8.29099C23.925 8.7581 24.0166 9.08699 24.224 9.31578C24.3782 9.48737 24.6724 9.5398 24.9568 9.5398H25.4294L26.9144 6.10796H28.4863L30.2751 10.2357V6.10796H31.8856L33.7371 9.14419V6.10796H34.822V10.474H33.3176L31.3263 7.20424V10.474H29.1806L28.7756 9.4969H26.5817L26.1767 10.474H24.952C24.4361 10.474 23.7852 10.3549 23.4187 9.98785C23.0475 9.61606 22.8594 9.11559 22.8594 8.32436C22.8594 7.67612 22.9751 7.08508 23.4236 6.61797ZM21.2635 6.10796H22.3435V10.474H21.2635V6.10796ZM16.4177 6.10796H18.8478C19.383 6.10796 19.7784 6.12703 20.1159 6.31768C20.4534 6.51311 20.6607 6.79909 20.6607 7.28527C20.6607 7.97641 20.1882 8.33389 19.9086 8.44352C20.14 8.52931 20.3377 8.68661 20.4293 8.8153C20.5788 9.02502 20.6029 9.22522 20.6029 9.60653V10.474H19.5421V9.92112C19.5421 9.66373 19.5662 9.28241 19.3685 9.07746C19.2191 8.92016 18.9876 8.8868 18.6019 8.8868H17.4688V10.474H16.4129V6.10796H16.4177ZM12.165 6.10796H15.6848V7.01835H13.2161V7.80481H15.6221V8.70091H13.2161V9.56363L15.6848 9.55887V10.4693H12.165V6.10796ZM1.15711 10.474H0.00955178L1.89482 6.10796H3.46669L5.25552 10.2357V6.10796H6.98168L8.35585 9.06792L9.62395 6.10796H11.379V10.474H10.299V7.05648L8.77052 10.474H7.84476L6.31147 7.05172V10.474H4.16101L3.75599 9.4969H1.56213L1.15711 10.474Z" fill="white"/>
<path d="M27.6762 6.85156L26.9578 8.58655H28.3947L27.6762 6.85156Z" fill="white"/>
<path d="M35.1643 14.6207C35.0534 14.6922 35.0052 14.7971 35.0052 14.9353C35.0052 15.0973 35.1016 15.2117 35.2366 15.2594C35.3427 15.2975 35.4632 15.3071 35.6416 15.3071L36.2058 15.3214C36.7892 15.3357 37.1749 15.431 37.4112 15.6741C37.445 15.7074 37.4739 15.7408 37.498 15.7742V14.5444H35.5838C35.3957 14.5444 35.2656 14.554 35.1643 14.6207Z" fill="white"/>
<path d="M36.0757 17.9712H34.0409V17.037H36.066C36.2637 17.037 36.4035 17.0084 36.4903 16.9321C36.5626 16.8654 36.6157 16.7701 36.6157 16.6461C36.6157 16.5174 36.5626 16.4173 36.4855 16.3554C36.4084 16.2887 36.2975 16.2601 36.1191 16.2601C35.1354 16.2315 33.8963 16.2934 33.8963 14.9064C33.8963 14.282 34.2965 13.6099 35.4054 13.6099H37.5029V12.752H35.5501C34.9667 12.752 34.5279 12.8854 34.229 13.0999V12.752H31.3504C30.8924 12.752 30.3427 12.8616 30.0872 13.0999V12.752H24.9328V13.0999C24.5229 12.8139 23.8335 12.752 23.5056 12.752H20.1063V13.0999C19.7833 12.7901 19.0696 12.752 18.6309 12.752H14.8218L13.949 13.6862L13.139 12.752H7.45908V18.8339H13.0377L13.9298 17.8854L14.7784 18.8292L18.2114 18.8339V17.3992H18.5537C19.007 17.3992 19.547 17.3897 20.0147 17.1895V18.8339H22.8595V17.2419H22.9993C23.1729 17.2419 23.1873 17.2562 23.1873 17.4183V18.8339H31.794C32.334 18.8339 32.9175 18.6957 33.2357 18.4479V18.8339H35.9648C36.5289 18.8339 37.0882 18.7529 37.5125 18.5527V17.4231C37.2377 17.7949 36.7555 17.9712 36.0757 17.9712ZM18.5923 16.5127H17.2808V17.9712H15.2268L13.9346 16.5365L12.5845 17.976H8.40412V13.6099H12.6472L13.9394 15.0446L15.2846 13.6099H18.6598C19.4891 13.6099 20.4294 13.8482 20.4294 15.0541C20.4245 16.2601 19.5132 16.5127 18.5923 16.5127ZM24.9376 16.3173C25.0871 16.527 25.1112 16.7272 25.116 17.1085V17.9712H24.0553V17.4183C24.0553 17.1609 24.0794 16.7796 23.8817 16.5746C23.7274 16.4173 23.5008 16.384 23.115 16.384H21.9819V17.9712H20.926V13.6051H23.3561C23.8913 13.6051 24.2819 13.6242 24.6242 13.8196C24.9617 14.0151 25.1691 14.301 25.1691 14.7872C25.1691 15.4784 24.6965 15.8358 24.4217 15.9455C24.6531 16.0313 24.8508 16.1886 24.9376 16.3173ZM29.2723 14.5203H26.8084V15.3068H29.2193V16.2076H26.8084V17.0704H29.2771V17.976H25.7573V13.6099H29.2771V14.5203H29.2723ZM31.9531 17.9712H29.8991V17.037H31.9435C32.1412 17.037 32.281 17.0084 32.3678 16.9321C32.4401 16.8654 32.4932 16.7701 32.4932 16.6461C32.4932 16.5174 32.4401 16.4173 32.363 16.3554C32.2858 16.2887 32.1749 16.2601 31.9965 16.2601C31.0129 16.2315 29.7737 16.2934 29.7737 14.9064C29.7737 14.2772 30.1739 13.6099 31.2829 13.6099H33.3948V14.5441H31.4613C31.2685 14.5441 31.1431 14.5489 31.037 14.6156C30.9261 14.6871 30.8827 14.792 30.8827 14.9302C30.8827 15.0923 30.9792 15.2067 31.1142 15.2543C31.2251 15.2925 31.3408 15.302 31.5192 15.302L32.0833 15.3163C32.6667 15.3306 33.0525 15.4259 33.2887 15.669C33.4961 15.8883 33.607 16.1409 33.607 16.5937C33.6118 17.5279 33.0235 17.9712 31.9531 17.9712Z" fill="white"/>
<path d="M23.7852 14.592C23.6598 14.5253 23.467 14.5205 23.2838 14.5205H21.9819V15.4929H23.2693C23.4718 15.4929 23.6454 15.4881 23.7852 15.4071C23.9202 15.3308 24.0022 15.1783 24.0022 14.9924C23.9974 14.8017 23.9154 14.6683 23.7852 14.592Z" fill="white"/>
</g>
<defs>
<linearGradient id="paint0_linear_129_182" x1="18.75" y1="0" x2="18.75" y2="24" gradientUnits="userSpaceOnUse">
<stop stop-color="#1B8ABA"/>
<stop offset="1" stop-color="#005D9C"/>
</linearGradient>
</defs>
</svg>
