<svg width="38" height="24" viewBox="0 0 38 24" fill="none" xmlns="http://www.w3.org/2000/svg">
<rect width="37.5" height="24" rx="3" fill="white"/>
<path d="M9.70749 7.64498C9.37347 8.04141 8.83903 8.35409 8.30459 8.30942C8.23779 7.7734 8.49944 7.20388 8.80563 6.85211C9.13965 6.44452 9.72419 6.15417 10.1974 6.13184C10.2531 6.69019 10.0359 7.23738 9.70749 7.64498ZM10.1918 8.41551C9.418 8.37084 8.75552 8.85661 8.3881 8.85661C8.01511 8.85661 7.45283 8.43785 6.84046 8.44901C6.04437 8.46018 5.30396 8.91245 4.89756 9.63273C4.06251 11.0733 4.68045 13.2062 5.48767 14.3788C5.88293 14.9594 6.35613 15.596 6.97964 15.5736C7.56974 15.5513 7.80356 15.1884 8.51614 15.1884C9.23429 15.1884 9.44027 15.5736 10.0638 15.5625C10.7096 15.5513 11.116 14.9818 11.5112 14.4011C11.9621 13.7422 12.1459 13.1001 12.157 13.0666C12.1459 13.0554 10.91 12.5808 10.8988 11.1515C10.8877 9.95657 11.8731 9.38705 11.9176 9.35355C11.3609 8.52718 10.4924 8.43785 10.1918 8.41551ZM14.6622 6.79628V15.501H16.0094V12.525H17.8743C19.5779 12.525 20.7748 11.3525 20.7748 9.65506C20.7748 7.95766 19.6001 6.79628 17.9189 6.79628H14.6622ZM16.0094 7.93533H17.5626C18.7317 7.93533 19.3997 8.56068 19.3997 9.66064C19.3997 10.7606 18.7317 11.3915 17.557 11.3915H16.0094V7.93533ZM23.2354 15.568C24.0816 15.568 24.8665 15.1381 25.2228 14.4569H25.2507V15.501H26.4977V11.1682C26.4977 9.9119 25.4956 9.10229 23.9536 9.10229C22.5228 9.10229 21.4651 9.92307 21.4261 11.051H22.6397C22.7399 10.5149 23.2354 10.1632 23.9146 10.1632C24.7385 10.1632 25.2006 10.5484 25.2006 11.2575V11.7377L23.5193 11.8382C21.955 11.9332 21.1088 12.5753 21.1088 13.692C21.1088 14.8199 21.9828 15.568 23.2354 15.568ZM23.5973 14.5351C22.8791 14.5351 22.4226 14.1889 22.4226 13.6585C22.4226 13.1113 22.8624 12.793 23.703 12.7428L25.2006 12.6478V13.1392C25.2006 13.9544 24.5103 14.5351 23.5973 14.5351ZM28.1622 17.8685C29.4761 17.8685 30.094 17.366 30.634 15.8416L33 9.18604H31.6305L30.0439 14.3285H30.0161L28.4295 9.18604H27.021L29.3035 15.5234L29.181 15.9086C28.975 16.5619 28.641 16.8132 28.0453 16.8132C27.9396 16.8132 27.7336 16.802 27.6501 16.7908V17.835C27.728 17.8573 28.062 17.8685 28.1622 17.8685Z" fill="black"/>
</svg>
