<svg width="38" height="24" viewBox="0 0 38 24" fill="none" xmlns="http://www.w3.org/2000/svg">
<rect width="37.5" height="24" rx="3" fill="#F9F9F9"/>
<path d="M17.9785 12.6203V15.9377H16.9261V7.74518H19.7173C20.0505 7.73822 20.3817 7.79731 20.692 7.91904C21.0022 8.04077 21.2852 8.22273 21.5247 8.45442C21.7667 8.67204 21.9592 8.93893 22.0894 9.23715C22.2197 9.53537 22.2846 9.85801 22.2797 10.1834C22.2867 10.5105 22.2228 10.8353 22.0925 11.1354C21.9621 11.4355 21.7685 11.7039 21.5247 11.9222C21.0367 12.3876 20.4342 12.6201 19.7173 12.6196H17.9785V12.6203ZM17.9785 8.7538V11.6136H19.7435C19.937 11.6194 20.1295 11.5846 20.3088 11.5117C20.4881 11.4388 20.6502 11.3292 20.7848 11.19C20.9186 11.0599 21.025 10.9043 21.0976 10.7323C21.1703 10.5604 21.2077 10.3756 21.2077 10.1889C21.2077 10.0023 21.1703 9.8175 21.0976 9.64555C21.025 9.4736 20.9186 9.31796 20.7848 9.18784C20.6519 9.04573 20.4904 8.93349 20.3109 8.85855C20.1313 8.78361 19.9379 8.74768 19.7435 8.75315H17.9785V8.7538Z" fill="#5F6368"/>
<path d="M24.7049 10.1494C25.4828 10.1494 26.0968 10.3573 26.5469 10.773C26.9971 11.1888 27.222 11.7588 27.2215 12.483V15.9377H26.2149V15.1598H26.1691C25.7333 15.8004 25.1537 16.1207 24.4303 16.1207C23.8128 16.1207 23.2962 15.9377 22.8805 15.5716C22.681 15.4036 22.5215 15.1932 22.4136 14.9557C22.3057 14.7183 22.2522 14.4597 22.2569 14.1989C22.2569 13.6189 22.4761 13.1576 22.9145 12.8151C23.3529 12.4726 23.9381 12.3009 24.6702 12.3C25.2952 12.3 25.8098 12.4144 26.2142 12.6432V12.4026C26.2154 12.2248 26.177 12.049 26.1018 11.8879C26.0267 11.7268 25.9166 11.5844 25.7795 11.4711C25.5012 11.2201 25.1385 11.083 24.7637 11.0874C24.1758 11.0874 23.7107 11.3354 23.3681 11.8313L22.4412 11.2476C22.9511 10.5155 23.7056 10.1494 24.7049 10.1494ZM23.3433 14.2218C23.3426 14.3557 23.3739 14.4879 23.4346 14.6073C23.4953 14.7267 23.5837 14.8298 23.6923 14.9082C23.9251 15.0913 24.214 15.1882 24.5101 15.1827C24.9542 15.182 25.3799 15.0052 25.6939 14.6911C26.0425 14.363 26.2168 13.978 26.2168 13.5361C25.8887 13.2746 25.4311 13.1439 24.8441 13.1439C24.4166 13.1439 24.0601 13.247 23.7747 13.4531C23.4864 13.6623 23.3433 13.9165 23.3433 14.2218Z" fill="#5F6368"/>
<path d="M33 10.3325L29.4858 18.4087H28.3994L29.7035 15.5828L27.3928 10.3325H28.5367L30.2068 14.3592H30.2297L31.8541 10.3325H33Z" fill="#5F6368"/>
<path d="M13.7257 11.9052C13.7261 11.5845 13.699 11.2643 13.6447 10.9482H9.20622V12.7609H11.7484C11.6963 13.0504 11.5862 13.3264 11.4247 13.5722C11.2631 13.818 11.0535 14.0285 10.8084 14.1911V15.3677H12.3256C13.2139 14.5487 13.7257 13.3374 13.7257 11.9052Z" fill="#4285F4"/>
<path d="M9.20628 16.5044C10.4764 16.5044 11.5458 16.0874 12.3256 15.3683L10.8084 14.1917C10.3862 14.478 9.8423 14.6415 9.20628 14.6415C7.97868 14.6415 6.93672 13.8139 6.56413 12.6987H5.00119V13.9113C5.39292 14.6908 5.99358 15.3461 6.73613 15.804C7.47868 16.2619 8.33389 16.5044 9.20628 16.5044Z" fill="#34A853"/>
<path d="M6.56409 12.6987C6.36711 12.1143 6.36711 11.4815 6.56409 10.8971V9.68457H5.00115C4.67162 10.3403 4.5 11.064 4.5 11.7979C4.5 12.5318 4.67162 13.2555 5.00115 13.9112L6.56409 12.6987Z" fill="#FBBC04"/>
<path d="M9.20628 8.95459C9.87746 8.94362 10.526 9.19722 11.0117 9.66056L12.355 8.31726C11.5032 7.51721 10.3748 7.07797 9.20628 7.09162C8.33389 7.09166 7.47868 7.33417 6.73613 7.79207C5.99358 8.24997 5.39292 8.90525 5.00119 9.68474L6.56413 10.8973C6.93672 9.78214 7.97868 8.95459 9.20628 8.95459Z" fill="#EA4335"/>
</svg>
