<svg width="38" height="24" viewBox="0 0 38 24" fill="none" xmlns="http://www.w3.org/2000/svg">
<rect width="37.5" height="24" rx="3" fill="#F9F9F9"/>
<path d="M22.0224 17.8983H15.4605V6.10547H22.0224V17.8983Z" fill="#FF5F00"/>
<path d="M15.8809 12.001C15.8809 9.60874 17.001 7.4778 18.7452 6.10454C17.4697 5.10035 15.8599 4.50098 14.1104 4.50098C9.96872 4.50098 6.61139 7.85879 6.61139 12.001C6.61139 16.1432 9.96872 19.501 14.1104 19.501C15.8599 19.501 17.4697 18.9016 18.7452 17.8974C17.001 16.5242 15.8809 14.3932 15.8809 12.001Z" fill="#EB001B"/>
<path d="M30.8723 12.001C30.8723 16.1432 27.515 19.501 23.3733 19.501C21.6238 19.501 20.014 18.9016 18.7381 17.8974C20.4828 16.5242 21.6028 14.3932 21.6028 12.001C21.6028 9.60874 20.4828 7.4778 18.7381 6.10454C20.014 5.10035 21.6238 4.50098 23.3733 4.50098C27.515 4.50098 30.8723 7.85879 30.8723 12.001Z" fill="#F79E1B"/>
<path d="M12.2544 12.0486C12.2544 11.721 12.4691 11.4518 12.8199 11.4518C13.155 11.4518 13.3813 11.7094 13.3813 12.0486C13.3813 12.3878 13.155 12.6453 12.8199 12.6453C12.4691 12.6453 12.2544 12.3762 12.2544 12.0486ZM13.7634 12.0486V11.1167H13.3581V11.3429C13.2296 11.1751 13.0345 11.0698 12.7694 11.0698C12.2468 11.0698 11.8371 11.4795 11.8371 12.0486C11.8371 12.6181 12.2468 13.0273 12.7694 13.0273C13.0345 13.0273 13.2296 12.922 13.3581 12.7542V12.9805H13.7634V12.0486ZM27.4582 12.0486C27.4582 11.721 27.6729 11.4518 28.0237 11.4518C28.3593 11.4518 28.5852 11.7094 28.5852 12.0486C28.5852 12.3878 28.3593 12.6453 28.0237 12.6453C27.6729 12.6453 27.4582 12.3762 27.4582 12.0486ZM28.9677 12.0486V10.3682H28.562V11.3429C28.4334 11.1751 28.2384 11.0698 27.9733 11.0698C27.4506 11.0698 27.0409 11.4795 27.0409 12.0486C27.0409 12.6181 27.4506 13.0273 27.9733 13.0273C28.2384 13.0273 28.4334 12.922 28.562 12.7542V12.9805H28.9677V12.0486ZM18.7938 11.4326C19.0549 11.4326 19.2227 11.5964 19.2656 11.8848H18.2984C18.3417 11.6156 18.5051 11.4326 18.7938 11.4326ZM18.8019 11.0698C18.2556 11.0698 17.8735 11.4675 17.8735 12.0486C17.8735 12.6413 18.2712 13.0273 18.8291 13.0273C19.1098 13.0273 19.3669 12.9573 19.5932 12.7662L19.3946 12.4659C19.2384 12.5904 19.0393 12.6609 18.8523 12.6609C18.5912 12.6609 18.3533 12.54 18.2949 12.2043H19.6789C19.6829 12.1539 19.6869 12.103 19.6869 12.0486C19.6829 11.4675 19.3241 11.0698 18.8019 11.0698ZM23.6953 12.0486C23.6953 11.721 23.91 11.4518 24.2608 11.4518C24.596 11.4518 24.8223 11.7094 24.8223 12.0486C24.8223 12.3878 24.596 12.6453 24.2608 12.6453C23.91 12.6453 23.6953 12.3762 23.6953 12.0486ZM25.2043 12.0486V11.1167H24.7991V11.3429C24.6701 11.1751 24.4755 11.0698 24.2104 11.0698C23.6877 11.0698 23.278 11.4795 23.278 12.0486C23.278 12.6181 23.6877 13.0273 24.2104 13.0273C24.4755 13.0273 24.6701 12.922 24.7991 12.7542V12.9805H25.2043V12.0486ZM21.4066 12.0486C21.4066 12.6141 21.8002 13.0273 22.401 13.0273C22.6817 13.0273 22.8687 12.9649 23.0714 12.8051L22.8768 12.4775C22.7246 12.5868 22.5648 12.6453 22.3889 12.6453C22.0654 12.6413 21.8275 12.4074 21.8275 12.0486C21.8275 11.6897 22.0654 11.4559 22.3889 11.4518C22.5648 11.4518 22.7246 11.5103 22.8768 11.6197L23.0714 11.2921C22.8687 11.1323 22.6817 11.0698 22.401 11.0698C21.8002 11.0698 21.4066 11.4831 21.4066 12.0486ZM26.6316 11.0698C26.3978 11.0698 26.2456 11.1791 26.1402 11.3429V11.1167H25.7386V12.9805H26.1443V11.9356C26.1443 11.6272 26.2768 11.4559 26.5419 11.4559C26.6241 11.4559 26.7097 11.4675 26.7954 11.5027L26.9204 11.1207C26.8307 11.0854 26.7138 11.0698 26.6316 11.0698ZM15.7678 11.2648C15.5728 11.1363 15.3041 11.0698 15.0077 11.0698C14.5355 11.0698 14.2316 11.2961 14.2316 11.6665C14.2316 11.9705 14.4579 12.1579 14.8747 12.2164L15.0662 12.2436C15.2884 12.2749 15.3933 12.3333 15.3933 12.4386C15.3933 12.5828 15.2452 12.6649 14.9684 12.6649C14.6877 12.6649 14.4851 12.5752 14.3485 12.4699L14.1575 12.7854C14.3797 12.9492 14.6605 13.0273 14.9644 13.0273C15.5027 13.0273 15.8147 12.7738 15.8147 12.419C15.8147 12.0914 15.5692 11.92 15.1635 11.8616L14.9725 11.8339C14.7971 11.8107 14.6565 11.7759 14.6565 11.6509C14.6565 11.5143 14.789 11.4326 15.0113 11.4326C15.2492 11.4326 15.4795 11.5224 15.5924 11.5924L15.7678 11.2648ZM20.9969 11.0698C20.763 11.0698 20.6108 11.1791 20.5059 11.3429V11.1167H20.1042V12.9805H20.5095V11.9356C20.5095 11.6272 20.642 11.4559 20.9072 11.4559C20.9893 11.4559 21.075 11.4675 21.1607 11.5027L21.2856 11.1207C21.1959 11.0854 21.079 11.0698 20.9969 11.0698ZM17.5383 11.1167H16.8756V10.5512H16.4658V11.1167H16.0878V11.4871H16.4658V12.3373C16.4658 12.7698 16.6337 13.0273 17.113 13.0273C17.2889 13.0273 17.4915 12.9729 17.62 12.8832L17.5031 12.5359C17.3821 12.606 17.2496 12.6413 17.1442 12.6413C16.9416 12.6413 16.8756 12.5163 16.8756 12.3293V11.4871H17.5383V11.1167ZM11.4787 12.9805V11.8107C11.4787 11.3702 11.1979 11.0738 10.7454 11.0698C10.5075 11.0658 10.262 11.1399 10.0902 11.4014C9.96164 11.1948 9.75901 11.0698 9.47426 11.0698C9.2752 11.0698 9.0806 11.1283 8.92841 11.3465V11.1167H8.52271V12.9805H8.93198V11.9473C8.93198 11.6237 9.1114 11.4518 9.38856 11.4518C9.65769 11.4518 9.79382 11.6272 9.79382 11.9432V12.9805H10.2035V11.9473C10.2035 11.6237 10.3905 11.4518 10.6597 11.4518C10.9364 11.4518 11.069 11.6272 11.069 11.9432V12.9805H11.4787Z" fill="white"/>
</svg>
