<svg width="38" height="24" viewBox="0 0 38 24" fill="none" xmlns="http://www.w3.org/2000/svg">
<rect width="37.5" height="24" rx="3" fill="#F9F9F9"/>
<path d="M11.1554 15.6753H9.6009C9.49452 15.6753 9.40405 15.7526 9.38746 15.8576L8.75874 19.8438C8.74624 19.9224 8.80716 19.9934 8.88694 19.9934H9.62908C9.73546 19.9934 9.82593 19.9161 9.84252 19.8108L10.0121 18.7357C10.0285 18.6304 10.1191 18.5532 10.2253 18.5532H10.7174C11.7414 18.5532 12.3324 18.0576 12.4867 17.0757C12.5563 16.6461 12.4897 16.3086 12.2885 16.0722C12.0676 15.8126 11.6757 15.6753 11.1554 15.6753ZM11.3348 17.1312C11.2497 17.689 10.8236 17.689 10.4115 17.689H10.1769L10.3414 16.6472C10.3512 16.5843 10.4058 16.5379 10.4694 16.5379H10.5769C10.8577 16.5379 11.1225 16.5379 11.2593 16.6979C11.3409 16.7934 11.3659 16.9352 11.3348 17.1312Z" fill="#253B80"/>
<path d="M15.8022 17.1125H15.0578C14.9944 17.1125 14.9396 17.1589 14.9298 17.2218L14.8969 17.43L14.8448 17.3546C14.6837 17.1207 14.3243 17.0425 13.9656 17.0425C13.143 17.0425 12.4404 17.6655 12.3036 18.5395C12.2324 18.9755 12.3336 19.3923 12.5809 19.683C12.8077 19.9504 13.1323 20.0617 13.5185 20.0617C14.1813 20.0617 14.5489 19.6355 14.5489 19.6355L14.5157 19.8424C14.5032 19.9215 14.5641 19.9924 14.6434 19.9924H15.314C15.4206 19.9924 15.5106 19.9151 15.5274 19.8099L15.9297 17.2621C15.9425 17.1836 15.8818 17.1125 15.8022 17.1125ZM14.7646 18.5613C14.6928 18.9866 14.3552 19.2721 13.9247 19.2721C13.7085 19.2721 13.5358 19.2028 13.4249 19.0714C13.3148 18.9409 13.273 18.7552 13.308 18.5484C13.3751 18.1267 13.7183 17.8319 14.1422 17.8319C14.3536 17.8319 14.5255 17.9021 14.6387 18.0347C14.7521 18.1685 14.7971 18.3554 14.7646 18.5613Z" fill="#253B80"/>
<path d="M19.7668 17.1123H19.0187C18.9474 17.1123 18.8803 17.1478 18.8398 17.2071L17.8081 18.7268L17.3708 17.2664C17.3433 17.175 17.259 17.1123 17.1635 17.1123H16.4284C16.3391 17.1123 16.277 17.1996 16.3054 17.2837L17.1294 19.7017L16.3547 20.7953C16.2938 20.8814 16.3552 20.9999 16.4604 20.9999H17.2076C17.2785 20.9999 17.3449 20.9653 17.3851 20.9071L19.8732 17.3157C19.9327 17.2298 19.8716 17.1123 19.7668 17.1123Z" fill="#253B80"/>
<path d="M22.2434 15.6743H20.6886C20.5825 15.6743 20.492 15.7516 20.4754 15.8566L19.8467 19.8428C19.8342 19.9215 19.8951 19.9924 19.9744 19.9924H20.7723C20.8464 19.9924 20.9098 19.9383 20.9214 19.8646L21.0998 18.7347C21.1162 18.6295 21.2069 18.5522 21.313 18.5522H21.8049C22.8291 18.5522 23.4199 18.0567 23.5744 17.0747C23.6442 16.6451 23.5772 16.3076 23.376 16.0712C23.1553 15.8116 22.7637 15.6743 22.2434 15.6743ZM22.4227 17.1302C22.3379 17.688 21.9117 17.688 21.4994 17.688H21.2651L21.4299 16.6463C21.4396 16.5833 21.4937 16.5369 21.5576 16.5369H21.6651C21.9456 16.5369 22.2106 16.5369 22.3475 16.6969C22.4291 16.7924 22.4539 16.9343 22.4227 17.1302Z" fill="#179BD7"/>
<path d="M26.89 17.1125H26.146C26.0821 17.1125 26.0278 17.1589 26.0183 17.2218L25.9853 17.43L25.933 17.3546C25.7719 17.1207 25.4127 17.0425 25.054 17.0425C24.2314 17.0425 23.5291 17.6655 23.3922 18.5395C23.3213 18.9755 23.422 19.3923 23.6693 19.683C23.8966 19.9504 24.2207 20.0617 24.6069 20.0617C25.2697 20.0617 25.6373 19.6355 25.6373 19.6355L25.6041 19.8424C25.5916 19.9215 25.6525 19.9924 25.7323 19.9924H26.4026C26.5088 19.9924 26.5992 19.9151 26.6158 19.8099L27.0184 17.2621C27.0307 17.1836 26.9697 17.1125 26.89 17.1125ZM25.8523 18.5613C25.781 18.9866 25.443 19.2721 25.0124 19.2721C24.7967 19.2721 24.6235 19.2028 24.5126 19.0714C24.4026 18.9409 24.3612 18.7552 24.3958 18.5484C24.4633 18.1267 24.8061 17.8319 25.23 17.8319C25.4414 17.8319 25.6132 17.9021 25.7264 18.0347C25.8403 18.1685 25.8853 18.3554 25.8523 18.5613Z" fill="#179BD7"/>
<path d="M27.7676 15.7839L27.1295 19.843C27.117 19.9217 27.1779 19.9926 27.2573 19.9926H27.8987C28.0053 19.9926 28.0958 19.9153 28.1122 19.8101L28.7413 15.8241C28.7538 15.7455 28.6929 15.6743 28.6136 15.6743H27.8953C27.8319 15.6745 27.7773 15.7209 27.7676 15.7839Z" fill="#179BD7"/>
<path d="M17.3015 12.7633L17.4766 11.6508L17.0865 11.6418H15.2234L16.5181 3.43252C16.5222 3.40774 16.5352 3.38464 16.5543 3.36823C16.5734 3.35182 16.5979 3.34277 16.6233 3.34277H19.7646C20.8075 3.34277 21.5271 3.55978 21.9029 3.98811C22.0791 4.18905 22.1912 4.39903 22.2455 4.6301C22.3024 4.87257 22.3034 5.16225 22.2478 5.51556L22.2438 5.54135V5.76774L22.42 5.86753C22.5683 5.94623 22.6862 6.03632 22.7766 6.13947C22.9273 6.31127 23.0248 6.52962 23.066 6.78849C23.1085 7.05473 23.0944 7.37154 23.0248 7.73021C22.9444 8.1428 22.8145 8.50214 22.639 8.79618C22.4776 9.0671 22.2719 9.29182 22.0278 9.46596C21.7947 9.6314 21.5178 9.75699 21.2046 9.83736C20.9012 9.91639 20.5553 9.95625 20.1759 9.95625H19.9314C19.7566 9.95625 19.5868 10.0192 19.4535 10.1321C19.3199 10.2473 19.2315 10.4047 19.2043 10.5768L19.1859 10.6769L18.8765 12.6377L18.8624 12.7097C18.8587 12.7325 18.8524 12.7439 18.843 12.7516C18.8346 12.7586 18.8225 12.7633 18.8108 12.7633H17.3015Z" fill="#253B80"/>
<path d="M22.5866 5.56738C22.5773 5.62733 22.5666 5.68861 22.5545 5.75157C22.1402 7.87848 20.723 8.61324 18.9129 8.61324H17.9912C17.7699 8.61324 17.5833 8.77399 17.5488 8.99234L17.077 11.9849L16.9434 12.8332C16.9209 12.9766 17.0314 13.1058 17.1761 13.1058H18.8107C19.0043 13.1058 19.1687 12.9652 19.1992 12.7743L19.2153 12.6912L19.523 10.7381L19.5428 10.631C19.5729 10.4394 19.7377 10.2988 19.9313 10.2988H20.1758C21.7595 10.2988 22.9992 9.65576 23.3616 7.79509C23.513 7.01781 23.4346 6.36878 23.0341 5.91232C22.9128 5.77468 22.7625 5.66048 22.5866 5.56738Z" fill="#179BD7"/>
<path d="M22.1533 5.39479C22.09 5.37637 22.0247 5.35962 21.9578 5.34455C21.8904 5.32982 21.8215 5.31676 21.7505 5.30537C21.502 5.26518 21.2297 5.24609 20.938 5.24609H18.4759C18.4153 5.24609 18.3577 5.25982 18.3061 5.28461C18.1926 5.33919 18.1082 5.44669 18.0877 5.57831L17.564 8.89576L17.5489 8.99255C17.5834 8.77419 17.7699 8.61345 17.9913 8.61345H18.9129C20.723 8.61345 22.1403 7.87836 22.5545 5.75178C22.5669 5.68882 22.5773 5.62754 22.5867 5.56759C22.4819 5.512 22.3683 5.46444 22.2461 5.42392C22.216 5.41388 22.1848 5.40416 22.1533 5.39479Z" fill="#222D65"/>
<path d="M18.0877 5.57834C18.1082 5.44673 18.1926 5.33923 18.3061 5.28498C18.358 5.2602 18.4153 5.24646 18.4759 5.24646H20.938C21.2297 5.24646 21.502 5.26555 21.7505 5.30574C21.8215 5.31713 21.8904 5.33019 21.9578 5.34492C22.0247 5.35999 22.09 5.37674 22.1533 5.39516C22.1848 5.40453 22.216 5.41425 22.2464 5.42396C22.3687 5.46448 22.4822 5.51237 22.587 5.56763C22.7103 4.78163 22.586 4.24647 22.161 3.76188C21.6925 3.2284 20.8469 3 19.7649 3H16.6236C16.4025 3 16.214 3.16075 16.1798 3.37943L14.8714 11.6731C14.8456 11.8372 14.9722 11.9852 15.1377 11.9852H17.077L17.564 8.8958L18.0877 5.57834Z" fill="#253B80"/>
</svg>
