<svg width="38" height="24" viewBox="0 0 38 24" fill="none" xmlns="http://www.w3.org/2000/svg">
<path d="M2.4337 0H35.0986C35.1821 0.0393503 35.2686 0.0717195 35.3574 0.0967739C35.9591 0.20632 36.5031 0.523035 36.8947 0.991696C37.2863 1.46036 37.5005 2.05123 37.5 2.66129C37.5 8.88172 37.4973 15.1022 37.4919 21.3226C37.4921 21.6295 37.443 21.9344 37.3464 22.2258C36.9583 23.3629 35.9961 24 34.6944 24H2.72477C1.72219 24 0.92982 23.6048 0.380014 22.75C0.0323425 22.2016 0 21.5887 0 20.9677C0.00539025 15.043 0.00539025 9.11828 0 3.19355C0 2.93548 2.45782e-07 2.68548 0.0242564 2.42742C0.060786 1.92883 0.243537 1.45196 0.549758 1.05619C0.855979 0.660426 1.27214 0.363232 1.74644 0.201613C1.97283 0.120968 2.20731 0.0645161 2.4337 0ZM7.90751 6.09677C6.64619 6.10484 5.49806 6.45968 4.4793 7.20968C3.80013 7.70968 3.80013 7.73387 4.27717 8.40322L4.46313 8.66935C4.76229 9.05645 4.8674 9.08064 5.23933 8.76613C6.25 7.91129 7.39813 7.6129 8.69987 7.84677C10.228 8.12097 11.4004 9.72581 11.2063 11.3064C10.9961 13.0968 9.74289 14.1613 7.98027 14C7.17982 13.9274 6.53299 13.5645 6.18532 12.8145C5.83765 12.0645 5.95084 11.5081 6.35511 10.9032C6.50873 10.6774 6.80789 10.4435 6.78364 10.2258C6.75938 10.0081 6.47639 9.75 6.29851 9.50806L6.17723 9.34677C5.98318 9.08871 5.79722 9.07258 5.53849 9.29032C4.13972 10.4919 3.89715 12.6694 5.02102 14.129C6.84832 16.5081 10.8587 16.0968 12.314 13.3871C14.0928 10.0403 11.7157 6.09677 7.90751 6.09677ZM15.1035 10.8952C15.1035 12.0081 15.0954 13.121 15.1035 14.2339C15.1116 15.3468 14.8852 15.2419 16.1789 15.2581C16.5184 15.2581 16.6235 15.1129 16.6074 14.7903C16.5912 14.2016 16.6155 13.6129 16.5993 13.0161C16.5912 12.75 16.6882 12.6613 16.955 12.6694C17.3431 12.6855 17.7393 12.6694 18.1274 12.6694C20.1245 12.6694 21.3858 11.3629 21.2888 9.37903C21.216 7.75806 19.9709 6.57258 18.3457 6.57258C17.4159 6.57258 16.4861 6.58064 15.5563 6.56451C15.2086 6.55645 15.0792 6.66129 15.0873 7.02419C15.1116 8.31451 15.1035 9.60484 15.1035 10.8952ZM25.4447 14.7016C25.3477 15.2903 25.6792 15.2661 25.9864 15.2581H26.512C26.7626 15.2581 26.8758 15.1452 26.8758 14.8871C26.8677 13.7339 26.9001 12.5726 26.8596 11.4194C26.8273 10.5161 26.5039 9.74193 25.5498 9.44355C24.5957 9.14516 23.6821 9.18548 22.8008 9.62097C22.4967 9.78633 22.2362 10.0213 22.0408 10.3065C21.8871 10.5161 21.879 10.8226 21.7982 11.0806C22.0408 11.129 22.2833 11.2097 22.5259 11.2097C22.7684 11.2097 23.0757 11.1935 23.1485 11.0645C23.5365 10.4032 24.143 10.4516 24.7494 10.5161C25.1051 10.5484 25.3153 10.7823 25.4124 11.129C25.5094 11.4758 25.4285 11.5806 25.0566 11.5968C24.337 11.6371 23.6012 11.6935 22.8978 11.8468C21.9518 12.0645 21.4748 12.8548 21.5637 13.8548C21.6365 14.6532 22.2995 15.2419 23.2131 15.3468C23.9893 15.4355 24.717 15.3387 25.4447 14.6935V14.7016ZM30.7487 13.629H30.6517C30.6032 13.5161 30.5385 13.4113 30.4981 13.2984C30.11 12.2742 29.73 11.2339 29.3338 10.2097C28.9942 9.33871 29.1963 9.41935 28.1614 9.41935C27.6197 9.41935 27.5712 9.5 27.7652 10.0081L29.7057 14.9919C30.021 15.8065 29.5036 16.5564 28.6061 16.5726C27.8622 16.5887 27.8622 16.5887 27.8622 17.3387C27.8651 17.3924 27.8651 17.4463 27.8622 17.5C27.8299 17.7984 27.9835 17.9032 28.2584 17.9274C29.6329 18.0564 30.587 17.5242 31.0883 16.2258C31.9211 14.1048 32.6973 11.9597 33.5058 9.83064C33.619 9.53226 33.4897 9.42742 33.2228 9.41935C32.956 9.41129 32.7377 9.42742 32.4952 9.41129C32.2526 9.39516 32.0828 9.52419 32.0019 9.78226C31.816 10.371 31.6219 10.9516 31.4279 11.5403L30.7487 13.629Z" fill="#5A31F5"/>
<path d="M7.9075 6.09668C11.7157 6.10474 14.0928 10.0402 12.3059 13.3789C10.8506 16.0967 6.84023 16.4999 5.01293 14.1209C3.88907 12.6612 4.13163 10.4838 5.5304 9.28216C5.78913 9.06442 5.9751 9.08862 6.16915 9.33862L6.29043 9.49991C6.46022 9.73378 6.75129 9.96765 6.77555 10.2176C6.7998 10.4676 6.49256 10.6612 6.34702 10.8951C5.95084 11.4999 5.87807 12.1531 6.17723 12.8064C6.47639 13.4596 7.17982 13.9193 7.97218 13.9918C9.7348 14.1531 10.988 13.0886 11.1983 11.2983C11.3842 9.71765 10.2199 8.11281 8.69178 7.83862C7.39004 7.60474 6.24191 7.90313 5.23124 8.75797C4.85931 9.07249 4.7542 9.05636 4.45504 8.6612L4.26908 8.39507C3.79204 7.71765 3.80013 7.70152 4.47121 7.20152C5.49806 6.45958 6.64618 6.10474 7.9075 6.09668Z" fill="white"/>
<path d="M15.1035 10.8953C15.1035 9.60501 15.1116 8.31469 15.0954 7.03243C15.0873 6.66953 15.2167 6.57275 15.5644 6.57275C16.4942 6.58888 17.424 6.58082 18.3538 6.58082C19.979 6.58082 21.2161 7.7663 21.2969 9.38727C21.3858 11.3631 20.1326 12.6776 18.1355 12.6776C17.7474 12.6776 17.3512 12.6937 16.9631 12.6776C16.7044 12.6695 16.6074 12.7582 16.6074 13.0244C16.6236 13.6131 16.5993 14.2098 16.6155 14.7986C16.6236 15.1211 16.5184 15.2663 16.1869 15.2663C14.8852 15.2502 15.1197 15.3631 15.1116 14.2421C15.1035 13.1211 15.1035 12.0082 15.1035 10.8953ZM16.6155 9.61308C16.6155 10.0405 16.6316 10.476 16.6074 10.9034C16.5993 11.1776 16.6802 11.2986 16.9712 11.2905C17.3997 11.2744 17.8364 11.2986 18.2649 11.2824C19.1704 11.2502 19.8011 10.5808 19.8011 9.6534C19.8011 8.72598 19.1704 7.96791 18.2487 7.93566C17.8202 7.91953 17.3836 7.94372 16.9551 7.92759C16.6802 7.91953 16.6074 8.03243 16.6155 8.28243C16.6236 8.72598 16.6074 9.16953 16.6074 9.61308H16.6155Z" fill="white"/>
<path d="M25.4447 14.6936C24.717 15.3307 23.9974 15.4355 23.2131 15.3468C22.2995 15.242 21.6284 14.6532 21.5637 13.8549C21.4748 12.8468 21.9599 12.0565 22.8978 11.8468C23.6012 11.6855 24.3289 11.6371 25.0566 11.5968C25.4285 11.5726 25.5013 11.4516 25.4123 11.1291C25.3234 10.8065 25.1132 10.5484 24.7493 10.5162C24.1429 10.4597 23.5365 10.4113 23.1484 11.0645C23.0757 11.1936 22.7361 11.2097 22.5259 11.2097C22.3156 11.2097 22.0407 11.1291 21.7982 11.0807C21.8709 10.8145 21.8871 10.5162 22.0407 10.3065C22.2362 10.0213 22.4967 9.78636 22.8008 9.62099C23.6821 9.18551 24.62 9.15325 25.5498 9.44357C26.4796 9.73389 26.8273 10.5162 26.8596 11.4194C26.9001 12.5726 26.8677 13.7339 26.8758 14.8871C26.8758 15.1371 26.7626 15.2581 26.512 15.2581H25.9864C25.6792 15.2581 25.3477 15.2903 25.4447 14.6936ZM25.4447 12.6936C25.1698 12.6936 24.9596 12.6774 24.7493 12.6936C24.337 12.7339 23.9085 12.742 23.5204 12.871C23.3101 12.9436 23.0999 13.2016 23.0272 13.4274C22.9544 13.6532 23.0999 13.9194 23.2455 14C23.771 14.3065 24.3451 14.2581 24.8625 13.9839C25.38 13.7097 25.4204 13.25 25.4447 12.6936Z" fill="white"/>
<path d="M30.7487 13.6289L31.4359 11.5483C31.63 10.9596 31.824 10.3789 32.01 9.79022C32.0909 9.54022 32.2202 9.40312 32.5032 9.41925C32.7862 9.43538 32.9883 9.41925 33.2309 9.42731C33.4735 9.43538 33.6271 9.54021 33.5139 9.8386C32.7053 11.9676 31.9211 14.1128 31.0964 16.2338C30.587 17.5322 29.641 18.0563 28.2665 17.9354C27.9916 17.9112 27.8379 17.8063 27.8703 17.508C27.8732 17.4542 27.8732 17.4004 27.8703 17.3467C27.8703 16.5967 27.8703 16.5967 28.6141 16.5805C29.5116 16.5644 30.0372 15.8144 29.7138 14.9999L27.7733 10.016C27.5711 9.50796 27.6277 9.42731 28.1694 9.42731C29.2044 9.42731 29.0022 9.34667 29.3418 10.2176C29.7461 11.2418 30.118 12.2741 30.5061 13.3063C30.5465 13.4192 30.6112 13.5321 30.6597 13.637L30.7487 13.6289Z" fill="white"/>
<path d="M16.6074 9.61277C16.6074 9.16922 16.6155 8.72568 16.5993 8.28213C16.5912 8.02406 16.6721 7.91116 16.9389 7.92729C17.3674 7.94342 17.804 7.91922 18.2325 7.93535C19.1543 7.96761 19.7849 8.66922 19.7849 9.6531C19.7849 10.637 19.1624 11.2499 18.2487 11.2821C17.8202 11.2983 17.3836 11.2741 16.9551 11.2902C16.664 11.2983 16.5831 11.1773 16.5912 10.9031C16.6074 10.4757 16.5993 10.0483 16.5993 9.61277H16.6074Z" fill="#5A31F5"/>
<path d="M25.4447 12.6933C25.4204 13.2416 25.3557 13.7336 24.8625 13.9916C24.3693 14.2497 23.7629 14.3142 23.2455 14.0078C23.0999 13.9191 22.9786 13.5884 23.0272 13.4352C23.0757 13.282 23.3101 12.9513 23.5204 12.8787C23.9085 12.7497 24.337 12.7416 24.7493 12.7013C24.9596 12.6771 25.1698 12.6933 25.4447 12.6933Z" fill="#5A31F5"/>
</svg>
