<svg width="38" height="24" viewBox="0 0 38 24" fill="none" xmlns="http://www.w3.org/2000/svg">
<rect width="37.5" height="24" rx="3" fill="#F9F9F9"/>
<path d="M16.85 16.1516H14.5413L15.9853 7.875H18.2939L16.85 16.1516Z" fill="#00579F"/>
<path d="M25.2192 8.07747C24.7639 7.91 24.0416 7.7251 23.1485 7.7251C20.8686 7.7251 19.2631 8.85207 19.2532 10.4633C19.2343 11.6521 20.4027 12.3123 21.2766 12.7087C22.1698 13.1137 22.4735 13.3781 22.4735 13.7391C22.4644 14.2936 21.7517 14.5492 21.087 14.5492C20.1653 14.5492 19.6714 14.4174 18.9208 14.1089L18.6168 13.9767L18.2938 15.8346C18.8352 16.0633 19.8329 16.2662 20.8686 16.2751C23.291 16.2751 24.8681 15.1656 24.8868 13.4485C24.896 12.5064 24.2791 11.7844 22.9489 11.1945C22.1414 10.8158 21.6469 10.5604 21.6469 10.173C21.6564 9.8207 22.0652 9.45991 22.9767 9.45991C23.7272 9.44224 24.2787 9.60947 24.6964 9.77682L24.9052 9.8647L25.2192 8.07747Z" fill="#00579F"/>
<path d="M28.2876 13.2195C28.4778 12.744 29.2094 10.9038 29.2094 10.9038C29.1998 10.9214 29.3991 10.4195 29.5131 10.1114L29.6745 10.8246C29.6745 10.8246 30.1117 12.8057 30.2066 13.2195C29.8458 13.2195 28.7436 13.2195 28.2876 13.2195ZM31.1374 7.875H29.3517C28.801 7.875 28.3826 8.02456 28.145 8.56171L24.7157 16.1515H27.1381C27.1381 16.1515 27.537 15.13 27.6227 14.91C27.8884 14.91 30.245 14.91 30.5869 14.91C30.6531 15.2005 30.8623 16.1515 30.8623 16.1515H33L31.1374 7.875Z" fill="#00579F"/>
<path d="M12.6129 7.875L10.352 13.5189L10.1049 12.3742C9.68689 11.0535 8.37593 9.61847 6.91296 8.90496L8.98394 16.1428H11.4253L15.0542 7.875H12.6129Z" fill="#00579F"/>
<path d="M8.25247 7.875H4.538L4.5 8.04223C7.39752 8.72906 9.31649 10.3846 10.1049 12.3746L9.29743 8.57073C9.16449 8.04211 8.75595 7.89244 8.25247 7.875Z" fill="#FAA61A"/>
</svg>
