<svg width="163" height="50" viewBox="0 0 163 50" fill="none" xmlns="http://www.w3.org/2000/svg">
<path d="M40.8386 33.0373C39.324 33.7303 37.6753 34.0791 36.0106 34.0586C34.7728 34.0677 33.5432 33.8572 32.3785 33.4369C31.2926 33.0528 30.2974 32.4481 29.4552 31.6607C28.5783 30.804 27.9112 29.7553 27.5062 28.5968C27.0148 27.2151 26.7748 25.7562 26.7976 24.2895C26.7964 23.0941 26.9301 21.9024 27.1962 20.7371C27.4384 19.6171 27.81 18.5293 28.3035 17.4956C28.7907 16.5048 29.4009 15.5797 30.1196 14.7424C30.8066 13.9329 31.5957 13.2164 32.4671 12.611C33.3523 12.0096 34.3229 11.5455 35.3462 11.2345C36.4074 10.9044 37.5128 10.7396 38.6239 10.746C42.0493 10.746 44.7364 12.3298 46.6853 15.4973L42.6103 18.5613C41.5473 16.6371 40.1447 15.675 38.4024 15.675C37.6801 15.6735 36.9673 15.8407 36.3207 16.1634C35.6637 16.4903 35.0769 16.9429 34.5932 17.4956C34.0869 18.0755 33.6553 18.717 33.3087 19.405C32.9323 20.1361 32.6495 20.9119 32.4671 21.714C32.288 22.5156 32.1988 23.3348 32.2014 24.1563C32.2014 25.7549 32.5705 26.9834 33.3087 27.8419C33.6884 28.2736 34.1605 28.6136 34.6898 28.8366C35.219 29.0596 35.7917 29.1598 36.3649 29.1297C37.2733 29.137 38.17 28.9237 38.9783 28.508C39.8 28.0862 40.5243 27.4962 41.1044 26.7762L44.6921 30.1066C43.6328 31.35 42.3184 32.3496 40.8386 33.0373Z" fill="black"/>
<path d="M57.7144 17.8508L57.05 23.1794C56.5176 22.9559 55.9277 22.9092 55.3669 23.0462C54.8327 23.1834 54.3439 23.459 53.9495 23.8454C53.485 24.3301 53.1234 24.9041 52.8864 25.5328C52.5669 26.3447 52.3583 27.1961 52.2663 28.0639L51.5576 33.7922H46.7739L48.6786 18.1616H53.4622L53.1965 20.3375H53.2851C54.5253 18.6797 56.0017 17.8508 57.7144 17.8508Z" fill="black"/>
<path d="M73.7929 18.1172L71.8883 33.7478H67.0603L67.3704 31.1723H67.2818C66.7541 32.0019 66.0603 32.7126 65.2443 33.2593C64.5111 33.7533 63.6473 34.0162 62.7639 34.0142C61.9974 34.0299 61.2383 33.8625 60.5492 33.5257C59.9131 33.2049 59.3655 32.7322 58.9546 32.1492C58.5276 31.5282 58.2128 30.8368 58.0245 30.1065C57.8049 29.2813 57.7005 28.4295 57.7144 27.5755C57.7065 26.2657 57.9007 24.9625 58.2902 23.7122C58.6254 22.581 59.1496 21.515 59.8405 20.5595C60.4709 19.7205 61.2708 19.0245 62.1881 18.5168C63.066 18.0186 64.0583 17.7584 65.0671 17.762C66.6322 17.762 67.8576 18.2356 68.7435 19.1829H68.8321L68.965 18.0728L73.7929 18.1172ZM65.6429 29.3517C66.1286 29.0166 66.549 28.5952 66.8832 28.1083C67.3175 27.4792 67.6605 26.7915 67.9019 26.0657C68.2043 25.1723 68.4122 24.2495 68.522 23.3126C68.2005 22.9479 67.8049 22.6563 67.3619 22.4572C66.9189 22.2581 66.4385 22.1561 65.953 22.1581C65.44 22.1612 64.9421 22.3328 64.5356 22.6465C64.0958 22.979 63.7331 23.4032 63.4726 23.8898C62.8999 24.9547 62.5958 26.1438 62.5867 27.3534C62.5572 27.9962 62.7275 28.6324 63.0739 29.174C63.2151 29.3842 63.4067 29.5554 63.6312 29.6718C63.8557 29.7882 64.1058 29.8461 64.3584 29.8401C64.8209 29.8223 65.2678 29.6678 65.6429 29.3961V29.3517Z" fill="black"/>
<path d="M90.0044 19.4049C90.5949 20.4411 90.7426 22.0396 90.4473 24.2007L89.1628 33.7922H84.4234L85.5307 25.3108C85.6973 24.5216 85.7123 23.7078 85.575 22.9129C85.5323 22.6897 85.4097 22.4897 85.2302 22.3507C85.0508 22.2117 84.8269 22.1432 84.6006 22.1581C84.1913 22.1675 83.7927 22.2905 83.4489 22.5133C83.0077 22.8007 82.6183 23.161 82.2973 23.579C81.8652 24.1452 81.5217 24.7741 81.2786 25.444C80.9734 26.2604 80.7653 27.1099 80.6584 27.9751L79.9497 33.7478H75.166L77.0707 18.1172H81.8544L81.5886 20.3819H81.6329C82.238 19.5787 83.0213 18.9279 83.9208 18.4809C84.8203 18.0339 85.8113 17.8029 86.8152 17.8064C88.3212 17.836 89.3843 18.3688 90.0044 19.4049Z" fill="black"/>
<path d="M106.304 18.6945C107.086 19.2852 107.685 20.0857 108.032 21.0035C108.429 22.0679 108.625 23.1975 108.608 24.3339C108.622 25.6587 108.428 26.9776 108.032 28.2416C107.678 29.3642 107.106 30.4055 106.349 31.3055C105.567 32.2091 104.58 32.9099 103.47 33.3481C102.199 33.8421 100.845 34.0834 99.4831 34.0586C97.1063 34.1082 94.7569 33.5424 92.662 32.4156L95.4082 10.2131H100.192L98.9516 20.4263H99.0402C100.28 18.6797 101.786 17.8064 103.558 17.8064C104.546 17.7902 105.512 18.1025 106.304 18.6945ZM101.786 29.0408C102.459 28.5609 102.982 27.8986 103.292 27.1314C103.62 26.3283 103.785 25.468 103.78 24.6003C103.809 23.9715 103.638 23.3496 103.292 22.8241C103.149 22.6023 102.952 22.4206 102.72 22.2963C102.487 22.172 102.227 22.1091 101.964 22.1137C101.019 22.1137 100.148 22.6761 99.3503 23.8011C98.553 24.926 98.0215 26.4654 97.7557 28.4192L97.6228 29.5737C98.1888 29.7107 98.7681 29.7852 99.3503 29.7957C100.217 29.828 101.072 29.5788 101.786 29.0852V29.0408Z" fill="black"/>
<path d="M119.991 28.508L123.535 30.595C122.79 31.6688 121.804 32.5512 120.655 33.1705C119.443 33.7624 118.106 34.0518 116.758 34.0142C114.72 34.0142 113.126 33.4221 111.974 32.238C110.822 31.0539 110.246 29.4109 110.246 27.309C110.238 26.3209 110.357 25.3358 110.601 24.3783C110.839 23.4551 111.212 22.5723 111.708 21.7584C112.19 20.9771 112.788 20.2734 113.48 19.6714C114.182 19.053 114.993 18.5711 115.872 18.2504C116.824 17.9122 117.829 17.7468 118.839 17.762C119.484 17.7596 120.125 17.8493 120.744 18.0284C121.344 18.2022 121.913 18.4721 122.427 18.8277C122.951 19.1912 123.378 19.6795 123.667 20.2487C123.971 20.8542 124.123 21.5248 124.11 22.2025C124.117 22.8848 123.949 23.5574 123.623 24.1563C123.291 24.7604 122.839 25.2894 122.294 25.7105C121.68 26.1891 121.011 26.5917 120.301 26.9094C119.53 27.2727 118.73 27.5698 117.909 27.7975C117.019 28.0248 116.117 28.2027 115.207 28.3304L114.986 28.5968C115.146 29.0224 115.43 29.3898 115.801 29.6511C116.173 29.9125 116.614 30.0557 117.068 30.0621C118.219 30.0918 119.194 29.5737 119.991 28.508ZM116.403 22.7353C115.727 23.4051 115.252 24.251 115.03 25.1776L115.252 25.3108C118.086 24.778 119.504 23.9195 119.504 22.7353C119.502 22.615 119.473 22.4966 119.42 22.3889C119.366 22.2813 119.289 22.1872 119.194 22.1137C118.971 21.9273 118.686 21.8322 118.396 21.8472C117.658 21.8856 116.962 22.2029 116.448 22.7353H116.403Z" fill="black"/>
<path d="M136.158 17.8508L135.494 23.1794C134.961 22.9559 134.371 22.9092 133.811 23.0462C133.276 23.1834 132.788 23.459 132.393 23.8454C131.929 24.3301 131.567 24.9041 131.33 25.5328C131.011 26.3447 130.802 27.1961 130.71 28.0639L130.001 33.7922H125.218L127.122 18.1616H131.906L131.64 20.3375H131.729C132.969 18.6797 134.445 17.8508 136.158 17.8508Z" fill="black"/>
<path d="M147.276 17.8508L146.611 23.1794C146.079 22.9559 145.489 22.9092 144.928 23.0462C144.394 23.1834 143.905 23.459 143.511 23.8454C143.046 24.3301 142.685 24.9041 142.448 25.5328C142.128 26.3447 141.92 27.1961 141.828 28.0639L141.119 33.7922H136.335L138.24 18.1616H143.024L142.758 20.3375H142.846C144.087 18.6797 145.563 17.8508 147.276 17.8508Z" fill="black"/>
<path d="M163 18.1172L161.361 31.6607C160.652 37.4926 157.714 40.4085 152.547 40.4085C150.567 40.4448 148.618 39.9215 146.921 38.8988L148.427 35.2575C149.573 36.0488 150.934 36.4674 152.325 36.4565L153.565 36.3677C153.943 36.2837 154.303 36.1334 154.629 35.9236C154.979 35.707 155.281 35.4197 155.514 35.0799C155.799 34.6388 156.023 34.1607 156.179 33.659C156.407 32.9653 156.57 32.2517 156.666 31.5275H156.622C155.382 33.2445 153.816 34.103 151.927 34.103C151.387 34.106 150.85 34.0313 150.332 33.881C149.877 33.7478 149.455 33.5209 149.092 33.2149C148.721 32.9056 148.431 32.509 148.25 32.0604C148.034 31.4904 147.899 30.8923 147.852 30.2842C147.787 29.4842 147.817 28.6794 147.94 27.8863L149.136 18.1616H153.876L152.901 26.4654C152.728 27.3288 152.713 28.2165 152.857 29.0853C152.919 29.3122 153.061 29.509 153.256 29.6395C153.451 29.77 153.687 29.8255 153.92 29.7957C154.47 29.7528 154.988 29.517 155.382 29.1297C155.938 28.656 156.404 28.0841 156.755 27.4423C157.135 26.7848 157.391 26.062 157.508 25.3108L158.393 18.1172H163Z" fill="black"/>
<path d="M34.9918 3.73002C29.6766 0.710477 23.9628 0.222019 18.116 1.46536C14.9296 2.09741 11.9568 3.53409 9.4788 5.63943C2.92336 11.2789 2.48042 19.849 8.28287 26.421C11.1619 29.7069 14.7497 32.1492 18.2932 34.5915C21.1723 36.5897 24.0956 38.4991 26.8861 40.5417C29.6766 42.5844 33.4859 45.9147 35.3905 50C35.4348 48.357 34.859 46.6696 33.6187 44.5382C30.8725 39.7424 26.7533 36.2345 22.6782 32.7265C19.622 30.0622 16.3443 27.6199 13.7753 24.4227C9.56738 19.2274 10.2761 12.5666 15.4584 8.25933C18.9576 5.373 23.1212 4.12966 27.5505 3.73002C30.0273 3.54002 32.515 3.54002 34.9918 3.73002Z" fill="#E63684"/>
<path d="M39.5984 9.77059e-06C40.5205 -0.00587869 41.4073 0.355725 42.0635 1.00527C42.7197 1.65482 43.0917 2.5391 43.0976 3.46359C43.1034 4.38808 42.7427 5.27705 42.0948 5.93493C41.4469 6.5928 40.5648 6.96569 39.6427 6.97158C39.1861 6.9745 38.7333 6.88723 38.3104 6.71474C37.8874 6.54226 37.5025 6.28795 37.1775 5.96632C36.5213 5.31678 36.1493 4.43249 36.1435 3.508C36.1376 2.58351 36.4983 1.69455 37.1462 1.03667C37.7941 0.378796 38.6762 0.00589824 39.5984 9.77059e-06Z" fill="#E63684"/>
<path d="M2.61332 10.4352C2.98025 10.4352 3.27772 10.137 3.27772 9.7691C3.27772 9.40124 2.98025 9.10303 2.61332 9.10303C2.24638 9.10303 1.94891 9.40124 1.94891 9.7691C1.94891 10.137 2.24638 10.4352 2.61332 10.4352Z" fill="#76C04B"/>
<path d="M1.24022 14.5648C1.75394 14.5648 2.17038 14.1473 2.17038 13.6323C2.17038 13.1173 1.75394 12.6998 1.24022 12.6998C0.726507 12.6998 0.310059 13.1173 0.310059 13.6323C0.310059 14.1473 0.726507 14.5648 1.24022 14.5648Z" fill="#76C04B"/>
<path d="M1.01875 18.6057C1.58139 18.6057 2.0375 18.1484 2.0375 17.5844C2.0375 17.0203 1.58139 16.563 1.01875 16.563C0.45611 16.563 0 17.0203 0 17.5844C0 18.1484 0.45611 18.6057 1.01875 18.6057Z" fill="#76C04B"/>
<path d="M1.77173 22.9574C2.43222 22.9574 2.96765 22.4206 2.96765 21.7584C2.96765 21.0963 2.43222 20.5595 1.77173 20.5595C1.11124 20.5595 0.575806 21.0963 0.575806 21.7584C0.575806 22.4206 1.11124 22.9574 1.77173 22.9574Z" fill="#76C04B"/>
<path d="M3.41059 26.865C4.14447 26.865 4.7394 26.2686 4.7394 25.5329C4.7394 24.7971 4.14447 24.2007 3.41059 24.2007C2.67671 24.2007 2.08179 24.7971 2.08179 25.5329C2.08179 26.2686 2.67671 26.865 3.41059 26.865Z" fill="#76C04B"/>
<path d="M6.06821 30.4174C6.80209 30.4174 7.39702 29.821 7.39702 29.0853C7.39702 28.3495 6.80209 27.7531 6.06821 27.7531C5.33434 27.7531 4.73941 28.3495 4.73941 29.0853C4.73941 29.821 5.33434 30.4174 6.06821 30.4174Z" fill="#76C04B"/>
<path d="M9.30164 33.7034C10.0355 33.7034 10.6304 33.107 10.6304 32.3712C10.6304 31.6355 10.0355 31.0391 9.30164 31.0391C8.56777 31.0391 7.97284 31.6355 7.97284 32.3712C7.97284 33.107 8.56777 33.7034 9.30164 33.7034Z" fill="#76C04B"/>
<path d="M12.5794 36.1012C13.3132 36.1012 13.9082 35.5048 13.9082 34.7691C13.9082 34.0334 13.3132 33.437 12.5794 33.437C11.8455 33.437 11.2505 34.0334 11.2505 34.7691C11.2505 35.5048 11.8455 36.1012 12.5794 36.1012Z" fill="#76C04B"/>
<path d="M16.0342 38.5435C16.7681 38.5435 17.3631 37.9471 17.3631 37.2114C17.3631 36.4757 16.7681 35.8792 16.0342 35.8792C15.3004 35.8792 14.7054 36.4757 14.7054 37.2114C14.7054 37.9471 15.3004 38.5435 16.0342 38.5435Z" fill="#76C04B"/>
<path d="M19.4448 40.897C20.1053 40.897 20.6407 40.3602 20.6407 39.6981C20.6407 39.0359 20.1053 38.4991 19.4448 38.4991C18.7843 38.4991 18.2489 39.0359 18.2489 39.6981C18.2489 40.3602 18.7843 40.897 19.4448 40.897Z" fill="#76C04B"/>
<path d="M22.634 42.8508C23.2945 42.8508 23.8299 42.314 23.8299 41.6519C23.8299 40.9897 23.2945 40.4529 22.634 40.4529C21.9735 40.4529 21.438 40.9897 21.438 41.6519C21.438 42.314 21.9735 42.8508 22.634 42.8508Z" fill="#76C04B"/>
<path d="M25.8231 44.5382C26.3368 44.5382 26.7533 44.1207 26.7533 43.6057C26.7533 43.0907 26.3368 42.6732 25.8231 42.6732C25.3094 42.6732 24.8929 43.0907 24.8929 43.6057C24.8929 44.1207 25.3094 44.5382 25.8231 44.5382Z" fill="#76C04B"/>
<path d="M28.7465 45.9147C29.1623 45.9147 29.4994 45.5768 29.4994 45.1599C29.4994 44.7429 29.1623 44.405 28.7465 44.405C28.3306 44.405 27.9935 44.7429 27.9935 45.1599C27.9935 45.5768 28.3306 45.9147 28.7465 45.9147Z" fill="#76C04B"/>
</svg>
